<?xml version="1.0" encoding="UTF-8"?>
<svg width="16px" height="16px" viewBox="0 0 16 16" version="1.1" xmlns="http://www.w3.org/2000/svg" xmlns:xlink="http://www.w3.org/1999/xlink">
    <!-- Generator: Sketch 63.1 (92452) - https://sketch.com -->
    <title>Group 10 Copy 4</title>
    <desc>Created with Sketch.</desc>
    <g id="Page-1" stroke="none" stroke-width="1" fill="none" fill-rule="evenodd">
        <g id="Group-10-Copy-4">
            <circle id="Combined-Shape" fill="#03A5AA" cx="7.91489362" cy="7.91489362" r="7.91489362"></circle>
            <path d="M7.42110638,11.2318298 L7.42110638,10.7538723 L3.66178723,10.7538723 L7.35676596,5.55148936 L7.35676596,5.10110638 L3,5.10110638 L3,5.57906383 L6.69497872,5.57906383 L3,10.7722553 L3,11.2318298 L7.42110638,11.2318298 Z M10.9291915,11.3421277 C12.5836596,11.3421277 13.1075745,10.3954043 13.1075745,9.60493617 C13.1075745,7.31625532 9.43097872,8.18025532 9.43097872,6.60851064 C9.43097872,5.9467234 10.0468085,5.47795745 10.8648511,5.47795745 C11.5542128,5.47795745 12.179234,5.71693617 12.6204255,6.25004255 L12.9697021,5.864 C12.4917447,5.32170213 11.8115745,5 10.8924255,5 C9.78025532,5 8.87948936,5.63421277 8.87948936,6.63608511 C8.87948936,8.77770213 12.5560851,7.84017021 12.5560851,9.64170213 C12.5560851,10.165617 12.197617,10.8641702 10.938383,10.8641702 C10.0651915,10.8641702 9.42178723,10.4321702 9.02655319,9.97259574 L8.68646809,10.3678298 C9.15523404,10.9377021 9.91812766,11.3421277 10.9291915,11.3421277 Z" id="ZS" fill="#FFFFFF" fill-rule="nonzero"></path>
        </g>
    </g>
</svg>