<?xml version="1.0" encoding="UTF-8"?>
<svg width="366px" height="100px" viewBox="0 0 366 100" version="1.1" xmlns="http://www.w3.org/2000/svg" xmlns:xlink="http://www.w3.org/1999/xlink">
    <!-- Generator: Sketch 62 (91390) - https://sketch.com -->
    <title>ZachStrike</title>
    <desc>Created with Sketch.</desc>
    <g id="Page-1" stroke="none" stroke-width="1" fill="none" fill-rule="evenodd">
        <path d="M12.7,92.64 C13.02,92.48 13.24,92.38 13.36,92.34 C13.48,92.3 13.46,92.36 13.3,92.52 C13.46,92.44 13.8,92.32 14.32,92.16 C14.84,92 15.54,91.84 16.42,91.68 L16.42,91.68 L18.7,91.2 C19.5,91.04 20.32,90.9 21.16,90.78 C22,90.66 22.82,90.44 23.62,90.12 C23.7,90.12 23.8,90.1 23.92,90.06 C24.04,90.02 24.18,90 24.34,90 C24.82,90 25.3,89.94 25.78,89.82 C26.26,89.7 26.78,89.6 27.34,89.52 C27.58,89.52 27.86,89.48 28.18,89.4 L28.18,89.4 L29.14,89.16 C30.66,88.6 32.42,88.12 34.42,87.72 C34.66,87.72 34.92,87.68 35.2,87.6 C35.48,87.52 35.74,87.44 35.98,87.36 C37.18,87.12 38.42,86.9 39.7,86.7 C40.98,86.5 42.22,86.2 43.42,85.8 L43.42,85.8 L47.26,84.96 C47.74,84.88 48.14,84.82 48.46,84.78 C48.78,84.74 49.02,84.72 49.18,84.72 L49.18,84.72 L50.2,84.72 C50.56,84.72 50.94,84.68 51.34,84.6 C51.66,84.6 51.74,84.4 51.58,84 C51.58,83.68 51.54,83.48 51.46,83.4 C51.38,83.16 51.1,82.8 50.62,82.32 L50.62,82.32 L49.06,81.48 C48.42,81.08 47.78,80.96 47.14,81.12 L47.14,81.12 L41.5,82.44 C40.86,82.6 40.5,82.68 40.42,82.68 C39.78,82.76 39.24,82.84 38.8,82.92 C38.36,83 37.98,83.08 37.66,83.16 C37.18,83.32 36.66,83.42 36.1,83.46 C35.54,83.5 35.02,83.52 34.54,83.52 L34.54,83.52 L34.06,83.52 C33.5,83.68 32.5,83.84 31.06,84 C30.42,84 29.86,84.12 29.38,84.36 C28.98,84.68 28.46,84.84 27.82,84.84 C27.26,84.92 26.6,85 25.84,85.08 C25.08,85.16 24.18,85.28 23.14,85.44 C22.66,85.44 22.18,85.5 21.7,85.62 C21.22,85.74 20.78,85.8 20.38,85.8 C19.82,85.96 19.26,86.06 18.7,86.1 C18.14,86.14 17.62,86.24 17.14,86.4 C16.82,86.4 16.34,86.44 15.7,86.52 C15.06,86.6 14.3,86.72 13.42,86.88 C12.14,87.12 11.08,87.26 10.24,87.3 C9.4,87.34 8.14,87.24 6.46,87 L6.46,87 L5.62,86.64 C5.14,86.48 4.86,86.12 4.78,85.56 C4.78,84.84 4.86,84.24 5.02,83.76 C5.18,82.96 5.26,82.56 5.26,82.56 C5.34,82.4 5.42,82.2 5.5,81.96 C5.58,81.72 5.7,81.48 5.86,81.24 C5.94,81.08 6.04,80.94 6.16,80.82 C6.28,80.7 6.42,80.52 6.58,80.28 L6.58,80.28 L7.3,78.84 C7.3,78.84 7.38,78.52 7.54,77.88 C7.94,77.32 8.22,77 8.38,76.92 C8.62,76.92 9.18,76.52 10.06,75.72 C10.38,75.64 10.54,75.2 10.54,74.4 C10.54,74.16 10.66,73.96 10.9,73.8 C11.54,73.16 11.98,72.8 12.22,72.72 L12.22,72.72 L13.3,71.88 C13.3,71.8 13.54,71.52 14.02,71.04 C14.1,70.72 14.5,70.28 15.22,69.72 C15.46,69.56 15.66,69.24 15.82,68.76 C15.98,68.36 16.14,68.12 16.3,68.04 C16.94,67.4 17.46,67 17.86,66.84 C18.1,66.84 18.3,66.72 18.46,66.48 C18.62,66.24 18.82,66 19.06,65.76 C19.3,65.52 19.46,65.16 19.54,64.68 C19.62,64.6 19.68,64.52 19.72,64.44 C19.76,64.36 19.86,64.28 20.02,64.2 C20.34,64.12 20.86,63.72 21.58,63 C21.9,62.76 22.24,62.46 22.6,62.1 C22.96,61.74 23.38,61.44 23.86,61.2 C24.02,61.2 24.14,61.04 24.22,60.72 C24.7,60.08 25.18,59.5 25.66,58.98 C26.14,58.46 26.66,58.04 27.22,57.72 L27.22,57.72 L28.3,56.88 L28.78,56.4 C28.78,56.32 29.22,55.84 30.1,54.96 C30.66,54.64 31.22,54.22 31.78,53.7 C32.34,53.18 32.94,52.56 33.58,51.84 L33.58,51.84 L34.78,50.52 C35.34,50.12 35.9,49.68 36.46,49.2 C37.02,48.72 37.62,48.24 38.26,47.76 L38.26,47.76 L39.1,47.04 L42.94,43.68 C43.42,43.2 43.96,42.68 44.56,42.12 C45.16,41.56 45.74,40.96 46.3,40.32 L46.3,40.32 L49.3,37.08 C49.62,36.84 49.94,36.54 50.26,36.18 C50.58,35.82 50.98,35.48 51.46,35.16 C51.7,35.08 52.1,34.76 52.66,34.2 L52.66,34.2 L54.1,32.76 C54.18,32.68 54.34,32.56 54.58,32.4 C54.82,32.24 55.22,32 55.78,31.68 C55.78,31.6 55.82,31.56 55.9,31.56 C55.98,31.56 56.06,31.52 56.14,31.44 C56.3,31.36 56.58,31.12 56.98,30.72 C57.46,29.84 58.1,29.24 58.9,28.92 L58.9,28.92 L59.38,28.44 C59.46,28.12 59.66,27.88 59.98,27.72 C60.3,27.56 60.58,27.28 60.82,26.88 C61.06,26.48 61.38,26.16 61.78,25.92 C61.94,25.76 62.02,25.6 62.02,25.44 C62.18,24.96 62.42,24.56 62.74,24.24 C63.78,22.88 64.34,21.8 64.42,21 L64.42,21 L64.78,20.16 L65.74,18.84 C66.06,18.44 66.28,18.1 66.4,17.82 C66.52,17.54 66.62,17.36 66.7,17.28 C66.78,16.96 66.78,16.6 66.7,16.2 C66.54,15.56 66.46,15.2 66.46,15.12 L66.46,15.12 L66.46,14.04 L65.86,11.76 L65.5,11.04 C65.26,10.88 65.04,10.66 64.84,10.38 C64.64,10.1 64.46,9.8 64.3,9.48 L64.3,9.48 L62.98,7.56 L61.78,6.6 C61.46,6.6 61.3,6.48 61.3,6.24 C60.5,6 59.5,5.44 58.3,4.56 L58.3,4.56 L56.26,3.6 C55.46,3.44 54.9,3.24 54.58,3 C54.1,2.84 53.52,2.68 52.84,2.52 C52.16,2.36 51.38,2.2 50.5,2.04 C49.22,1.72 48.2,1.54 47.44,1.5 C46.68,1.46 45.7,1.44 44.5,1.44 C43.78,1.52 43.12,1.6 42.52,1.68 C41.92,1.76 41.42,1.84 41.02,1.92 C39.74,2.16 38.52,2.42 37.36,2.7 C36.2,2.98 35.02,3.24 33.82,3.48 C33.58,3.56 33.36,3.64 33.16,3.72 C32.96,3.8 32.74,3.84 32.5,3.84 C30.66,4.24 29.38,4.64 28.66,5.04 C28.1,5.36 27.18,5.76 25.9,6.24 C25.74,6.32 25.6,6.4 25.48,6.48 C25.36,6.56 25.26,6.6 25.18,6.6 L25.18,6.6 L22.54,7.92 C21.42,8.48 20.38,9.1 19.42,9.78 C18.46,10.46 17.54,11.2 16.66,12 C16.26,12.32 15.9,12.66 15.58,13.02 C15.26,13.38 14.94,13.68 14.62,13.92 C13.9,14.64 12.78,16.08 11.26,18.24 C11.1,18.4 10.98,18.6 10.9,18.84 C10.9,19.24 10.82,19.62 10.66,19.98 C10.5,20.34 10.42,20.68 10.42,21 C10.42,21.4 10.46,21.68 10.54,21.84 C10.62,22.08 10.7,22.36 10.78,22.68 C10.86,23 10.98,23.28 11.14,23.52 C11.14,23.84 11.26,24 11.5,24 C12.54,25.04 13.14,25.6 13.3,25.68 L13.3,25.68 L13.54,25.68 C13.94,25.84 14.18,25.76 14.26,25.44 C14.5,24.88 14.8,24.34 15.16,23.82 C15.52,23.3 15.86,22.76 16.18,22.2 C16.34,22.04 16.42,21.92 16.42,21.84 C16.74,21.6 17.04,21.3 17.32,20.94 C17.6,20.58 17.94,20.24 18.34,19.92 C18.82,19.36 19.38,18.8 20.02,18.24 C20.66,17.68 21.3,17.12 21.94,16.56 C22.18,16.32 22.46,16.12 22.78,15.96 C23.26,15.8 23.66,15.56 23.98,15.24 L23.98,15.24 L24.58,14.64 C24.9,14.48 25.18,14.32 25.42,14.16 C25.66,14 25.86,13.84 26.02,13.68 L26.02,13.68 L27.82,12.6 C28.54,12.12 29.28,11.7 30.04,11.34 C30.8,10.98 31.62,10.56 32.5,10.08 L32.5,10.08 L36.58,8.4 L41.02,7.08 C41.58,6.92 42.16,6.8 42.76,6.72 C43.36,6.64 43.98,6.52 44.62,6.36 L44.62,6.36 L47.5,6.12 C49.18,5.88 51.46,6.04 54.34,6.6 L54.34,6.6 L57.7,7.44 C58.74,7.84 59.5,8.08 59.98,8.16 C59.98,8.24 60.02,8.28 60.1,8.28 C60.18,8.28 60.22,8.3 60.22,8.34 C60.22,8.38 60.3,8.4 60.46,8.4 C60.62,8.48 60.76,8.58 60.88,8.7 C61,8.82 61.18,8.88 61.42,8.88 C61.82,9.12 62.02,9.48 62.02,9.96 L62.02,9.96 L62.02,10.8 C61.94,14.16 61.26,16.64 59.98,18.24 C59.18,19.36 58.34,20.24 57.46,20.88 C57.22,21.04 56.74,21.48 56.02,22.2 C55.3,22.92 54.64,23.6 54.04,24.24 C53.44,24.88 52.78,25.44 52.06,25.92 L52.06,25.92 L51.58,26.4 C51.1,26.88 50.64,27.26 50.2,27.54 C49.76,27.82 49.34,28.12 48.94,28.44 C48.46,28.92 47.42,29.76 45.82,30.96 C45.34,31.36 44.84,31.8 44.32,32.28 C43.8,32.76 43.34,33.16 42.94,33.48 C42.54,33.8 42.1,34.18 41.62,34.62 C41.14,35.06 40.58,35.6 39.94,36.24 L39.94,36.24 L38.14,37.92 C37.82,38.16 37.3,38.48 36.58,38.88 C35.86,39.28 35.38,39.6 35.14,39.84 C34.58,40.4 34.08,40.86 33.64,41.22 C33.2,41.58 32.78,41.88 32.38,42.12 C31.74,42.6 31.12,43.24 30.52,44.04 C29.92,44.84 29.34,45.48 28.78,45.96 L28.78,45.96 L27.82,46.92 C27.02,47.72 26.3,48.4 25.66,48.96 C25.02,49.52 24.3,50.2 23.5,51 C22.86,51.64 22.28,52.22 21.76,52.74 C21.24,53.26 20.78,53.68 20.38,54 C19.98,54.32 19.64,54.6 19.36,54.84 C19.08,55.08 18.86,55.28 18.7,55.44 L18.7,55.44 L14.62,59.64 C13.66,60.52 12.76,61.4 11.92,62.28 C11.08,63.16 10.26,64.04 9.46,64.92 C9.22,65.08 8.58,65.8 7.54,67.08 C7.3,67.4 7.06,67.72 6.82,68.04 C6.58,68.36 6.34,68.64 6.1,68.88 C5.38,69.6 5,70.08 4.96,70.32 C4.92,70.56 4.62,71.04 4.06,71.76 C3.26,72.72 2.58,73.8 2.02,75 C1.7,75.56 1.44,76.08 1.24,76.56 C1.04,77.04 0.9,77.48 0.82,77.88 C0.5,78.76 0.3,79.6 0.22,80.4 L0.22,80.4 L0.22,82.44 C0.22,82.84 0.34,83.32 0.58,83.88 L0.58,83.88 L1.06,84.48 C1.22,84.64 1.34,85.08 1.42,85.8 C1.5,86.6 1.98,87.36 2.86,88.08 L2.86,88.08 L5.5,90.6 C6.62,91.72 7.78,92.28 8.98,92.28 C9.46,92.36 9.88,92.42 10.24,92.46 C10.6,92.5 10.9,92.52 11.14,92.52 C11.38,92.6 11.9,92.64 12.7,92.64 Z M41.14,4.08 C40.9,4.08 40.74,3.96 40.66,3.72 C40.66,3.56 40.74,3.48 40.9,3.48 C41.06,3.32 41.18,3.24 41.26,3.24 C41.34,3.16 41.58,3.12 41.98,3.12 C42.54,3.12 43.1,3.08 43.66,3 C44.22,2.92 44.82,2.84 45.46,2.76 C45.86,2.76 46.1,2.8 46.18,2.88 L46.18,2.88 L47.38,2.88 L47.5,3 L47.38,3.12 C46.02,3.28 44.8,3.44 43.72,3.6 C42.64,3.76 41.78,3.92 41.14,4.08 Z M36.58,5.16 C36.42,5.32 36.26,5.28 36.1,5.04 C35.94,4.88 35.98,4.76 36.22,4.68 C36.62,4.52 37.1,4.36 37.66,4.2 C38.22,4.04 38.82,3.92 39.46,3.84 L39.46,3.84 L39.7,3.96 C39.94,4.2 39.9,4.32 39.58,4.32 C38.78,4.64 38.02,4.88 37.3,5.04 C37.14,5.04 37,5.06 36.88,5.1 C36.76,5.14 36.66,5.16 36.58,5.16 Z M32.38,6.48 L32.14,6.36 C31.98,6.28 31.98,6.16 32.14,6 C32.94,5.44 33.86,5.12 34.9,5.04 C34.98,5.04 35.06,5.08 35.14,5.16 C35.22,5.24 35.3,5.28 35.38,5.28 L35.38,5.28 L35.14,5.52 C34.98,5.68 34.82,5.76 34.66,5.76 C33.86,6.08 33.1,6.32 32.38,6.48 L32.38,6.48 Z M53.26,27.72 C53.1,27.88 52.98,27.88 52.9,27.72 C52.82,27.64 52.78,27.48 52.78,27.24 C53.42,26.6 53.94,26.2 54.34,26.04 L54.34,26.04 L54.46,26.28 L54.46,26.52 L53.26,27.72 Z M30.22,49.44 C30.06,49.6 29.98,49.6 29.98,49.44 C29.9,49.36 29.86,49.2 29.86,48.96 C30.02,48.8 30.1,48.68 30.1,48.6 L30.1,48.6 L30.58,48.12 C30.98,47.64 31.26,47.16 31.42,46.68 C31.58,46.2 31.86,45.84 32.26,45.6 C32.5,45.52 32.74,45.36 32.98,45.12 C33.46,44.64 34,44.18 34.6,43.74 C35.2,43.3 35.78,42.8 36.34,42.24 C36.74,41.84 36.98,41.56 37.06,41.4 C37.62,40.84 38.02,40.52 38.26,40.44 C38.66,40.2 39.02,39.92 39.34,39.6 C39.66,39.28 40.06,39 40.54,38.76 L40.54,38.76 L40.9,38.4 C41.06,38.08 41.26,37.8 41.5,37.56 C41.74,37.32 41.98,37.04 42.22,36.72 L42.22,36.72 L42.7,36.12 C43.18,35.96 43.6,35.68 43.96,35.28 C44.32,34.88 44.74,34.56 45.22,34.32 C45.46,34.16 45.66,33.96 45.82,33.72 C45.98,33.48 46.22,33.28 46.54,33.12 C46.62,33.12 46.7,33.16 46.78,33.24 C46.94,33.4 47.02,33.56 47.02,33.72 L47.02,33.72 L47.02,33.96 L46.42,34.56 L44.26,36.48 C43.7,36.88 43.2,37.28 42.76,37.68 C42.32,38.08 41.94,38.48 41.62,38.88 C41.3,39.28 40.98,39.64 40.66,39.96 C40.34,40.28 39.98,40.6 39.58,40.92 L39.58,40.92 L38.26,42 C38.02,42.4 37.76,42.68 37.48,42.84 C37.2,43 36.98,43.2 36.82,43.44 L36.82,43.44 L35.5,44.64 C35.02,45.2 34.46,45.68 33.82,46.08 L33.82,46.08 L31.54,48 L30.22,49.44 Z M28.3,51.36 C28.1646154,50.9538462 28.2583432,50.7195266 28.5811834,50.6570414 L28.657,50.647 L28.6564,50.6808 C28.6372,51.0904 28.5412,51.3464 28.3684,51.4488 L28.3,51.48 L28.3,51.48 L28.3,51.36 Z M27.7,52.08 L27.46,52.08 C27.38,52.08 27.34,52.04 27.34,51.96 L27.34,51.96 L27.34,51.84 C27.34,51.6 27.42,51.48 27.58,51.48 C27.66,51.4 27.9,51.44 28.3,51.6 L28.213,51.567 L27.7,52.08 L27.7,52.08 Z M26.26,53.76 C26.02,53.84 25.86,53.76 25.78,53.52 L25.78,53.52 L25.78,53.28 C25.78,53.04 25.94,52.96 26.26,53.04 C26.42,53.2 26.5,53.32 26.5,53.4 C26.34,53.56 26.26,53.68 26.26,53.76 Z M24.692,55.19 L24.6633333,55.1533333 C24.6077778,55.0644444 24.58,54.92 24.58,54.72 C24.74,54.48 24.86,54.4 24.94,54.48 C25.02,54.64 25.06,54.72 25.06,54.72 L25.06,54.72 L25.06,54.96 C24.9,55.12 24.78,55.16 24.7,55.08 C24.7,55.1142857 24.6983673,55.1461224 24.695102,55.1755102 L24.692,55.19 Z M14.487,65.176 L14.4616,65.088 C14.4232,64.992 14.356,64.896 14.26,64.8 C14.26,64.48 14.38,64.2 14.62,63.96 C14.7,63.88 14.82,63.88 14.98,63.96 C15.14,64.12 15.22,64.28 15.22,64.44 C15.14,64.76 14.94,65 14.62,65.16 L14.62,65.16 L14.5,65.16 L14.5,65.16 L14.487,65.176 Z M12.34,67.56 C12.1,67.56 11.94,67.52 11.86,67.44 L11.864,67.444 L11.865625,67.415625 C11.888125,67.138125 11.978125,66.928125 12.135625,66.785625 L12.22,66.72 C12.3,66.64 12.42,66.68 12.58,66.84 C12.66,67 12.66,67.12 12.58,67.2 C12.5,67.28 12.46,67.36 12.46,67.44 C12.46,67.52 12.42,67.56 12.34,67.56 Z M10.78,69.12 L10.54,69.12 C10.46,69.04 10.42,68.88 10.42,68.64 C10.58,68.48 10.7,68.4 10.78,68.4 C10.86,68.32 10.98,68.36 11.14,68.52 L11.14,68.52 L11.14,68.64 C11.14,68.72 11.18,68.76 11.26,68.76 C11.1,69 10.94,69.12 10.78,69.12 L10.78,69.12 Z M7.78,72.96 L7.66,72.96 C7.58,72.96 7.54,72.92 7.54,72.84 C7.3,72.68 7.26,72.52 7.42,72.36 C7.5,72.12 7.66,71.88 7.9,71.64 L7.9,71.64 L8.26,71.64 C8.26,71.08 8.3,70.76 8.38,70.68 C8.7,70.12 9.18,69.76 9.82,69.6 L9.82,69.6 L10.06,69.6 C10.14,69.84 10.14,70 10.06,70.08 C9.74,70.8 9.26,71.36 8.62,71.76 L8.62,71.76 L8.5,71.88 C8.34,72.52 8.1,72.88 7.78,72.96 L7.78,72.96 Z M2.5,80.16 C2.5,80.4 2.42,80.44 2.26,80.28 C2.18,80.28 2.14,80.2 2.14,80.04 C2.14,79.88 2.22,79.56 2.38,79.08 C2.62,78.2 2.98,77.4 3.46,76.68 C3.54,76.52 3.78,76.16 4.18,75.6 C4.42,75.28 4.54,74.88 4.54,74.4 C4.62,74.08 4.94,73.76 5.5,73.44 L5.5,73.44 L6.22,73.44 C6.38,73.28 6.58,73.44 6.82,73.92 C6.9,74.64 6.78,75.16 6.46,75.48 C6.38,75.48 6.3,75.52 6.22,75.6 C6.14,75.6 5.86,75.68 5.38,75.84 L5.38,75.84 L4.66,76.68 C4.1,77.4 3.7,77.84 3.46,78 L3.46,78 L3.22,78.48 C3.14,78.64 3.06,78.84 2.98,79.08 C2.98,79.4 2.82,79.76 2.5,80.16 Z M85.3,71.16 C85.38,71.16 85.42,71.14 85.42,71.1 C85.42,71.06 85.46,71.04 85.54,71.04 C86.58,70.32 87.34,69.88 87.82,69.72 L87.82,69.72 L88.3,69.24 C89.18,68.6 90,67.88 90.76,67.08 C91.52,66.28 92.3,65.48 93.1,64.68 C93.66,64.12 94.34,63.26 95.14,62.1 C95.94,60.94 96.5,60.24 96.82,60 C97.22,59.6 97.62,59.04 98.02,58.32 C98.18,57.92 98.36,57.5 98.56,57.06 C98.76,56.62 99.02,56.2 99.34,55.8 C100.3,55.08 101,54.34 101.44,53.58 C101.88,52.82 102.02,52.24 101.86,51.84 C101.7,51.6 101.46,51.48 101.14,51.48 C100.42,51.48 99.98,51.68 99.82,52.08 L99.82,52.08 L98.98,52.92 L97.9,54 C97.1,54.88 96.42,55.62 95.86,56.22 C95.3,56.82 94.82,57.32 94.42,57.72 C93.78,58.36 93.16,58.94 92.56,59.46 C91.96,59.98 91.38,60.52 90.82,61.08 C90.58,61.24 90.4,61.38 90.28,61.5 C90.16,61.62 90.02,61.72 89.86,61.8 C88.98,62.44 88.42,63.12 88.18,63.84 C88.1,64.4 87.7,64.76 86.98,64.92 C86.58,64.92 86.22,65.08 85.9,65.4 C85.66,65.56 85.44,65.72 85.24,65.88 C85.04,66.04 84.82,66.16 84.58,66.24 C83.94,66.8 83.1,67.2 82.06,67.44 L82.06,67.44 L81.46,67.44 C80.9,67.52 80.5,67.28 80.26,66.72 C79.7,65.68 79.42,64.88 79.42,64.32 C79.26,63.6 79.2,62.86 79.24,62.1 C79.28,61.34 79.22,60.56 79.06,59.76 L79.06,59.76 L79.06,59.64 C79.22,58.92 79.32,58.2 79.36,57.48 C79.4,56.76 79.54,56.04 79.78,55.32 C80.02,54.36 80.24,53.34 80.44,52.26 C80.64,51.18 80.9,50.16 81.22,49.2 C81.38,48.64 81.54,47.92 81.7,47.04 C81.86,46.16 82.02,45.16 82.18,44.04 C82.26,43.72 82.28,43.44 82.24,43.2 C82.2,42.96 82.14,42.68 82.06,42.36 C81.9,41.88 81.82,41.48 81.82,41.16 C81.74,41 81.66,40.84 81.58,40.68 C81.5,40.52 81.38,40.36 81.22,40.2 C80.82,39.8 80.38,39.48 79.9,39.24 C79.98,39.24 79.7,39.16 79.06,39 L79.06,39 L77.98,38.64 C77.66,38.64 77.46,38.92 77.38,39.48 L77.38,39.48 L77.14,39.72 C76.5,40.44 75.92,41.18 75.4,41.94 C74.88,42.7 74.34,43.44 73.78,44.16 C72.9,45.28 71.78,46.92 70.42,49.08 C69.54,50.52 68.74,51.6 68.02,52.32 L68.02,52.32 L67.66,53.04 C67.42,53.68 66.98,54.28 66.34,54.84 C66.18,54.92 66.04,55.02 65.92,55.14 C65.8,55.26 65.7,55.32 65.62,55.32 C65.3,55.8 64.96,56.28 64.6,56.76 C64.24,57.24 63.94,57.72 63.7,58.2 L63.7,58.2 L62.14,60.36 L61.54,60.96 C61.46,61.36 61.06,61.92 60.34,62.64 C60.18,62.8 59.98,62.92 59.74,63 C59.42,63 59.26,62.88 59.26,62.64 C59.1,61.28 59.18,60.32 59.5,59.76 L59.5,59.76 L61.9,53.28 C61.9,53.12 61.98,52.96 62.14,52.8 C63.18,50.88 64.18,49.36 65.14,48.24 C65.3,48 65.44,47.76 65.56,47.52 C65.68,47.28 65.86,47.04 66.1,46.8 L66.1,46.8 L67.78,45 C68.58,44.12 69.66,43.72 71.02,43.8 L71.02,43.8 L71.14,43.8 C71.54,43.8 71.74,43.64 71.74,43.32 C71.74,42.52 71.42,41.88 70.78,41.4 C69.9,40.68 69.14,40.32 68.5,40.32 C68.34,40.32 67.9,40.2 67.18,39.96 C66.62,39.96 66.3,40 66.22,40.08 C65.9,40.4 65.42,40.6 64.78,40.68 L64.78,40.68 L63.34,41.4 C62.78,41.56 62.46,41.8 62.38,42.12 L62.38,42.12 L61.9,42.6 C61.34,42.92 60.66,43.68 59.86,44.88 C59.3,45.68 58.78,46.52 58.3,47.4 C57.82,48.28 57.34,49.08 56.86,49.8 C56.06,50.92 55.5,52.32 55.18,54 C55.1,54.56 55.02,55.02 54.94,55.38 C54.86,55.74 54.78,56 54.7,56.16 C54.46,57.36 54.38,58.2 54.46,58.68 L54.46,58.68 L54.46,59.28 C54.3,60.48 54.54,61.68 55.18,62.88 C55.26,63.04 55.58,63.64 56.14,64.68 C56.46,65.32 56.98,65.88 57.7,66.36 L57.7,66.36 L60.22,67.8 C60.3,67.8 60.38,67.82 60.46,67.86 C60.54,67.9 60.66,67.92 60.82,67.92 C61.46,68.08 61.86,68 62.02,67.68 C62.34,67.44 62.64,67.16 62.92,66.84 C63.2,66.52 63.58,66.32 64.06,66.24 C64.54,65.76 64.82,65.44 64.9,65.28 C65.06,65.12 65.22,64.92 65.38,64.68 C65.54,64.44 65.74,64.2 65.98,63.96 C66.46,63.48 66.9,62.92 67.3,62.28 C67.7,61.64 68.14,61.04 68.62,60.48 C68.7,60.48 68.86,60.24 69.1,59.76 C69.58,58.88 70.1,58.02 70.66,57.18 C71.22,56.34 71.74,55.44 72.22,54.48 C72.46,54.24 72.68,53.94 72.88,53.58 C73.08,53.22 73.3,52.88 73.54,52.56 L73.54,52.56 L73.9,52.56 C74.06,52.56 74.14,52.72 74.14,53.04 L74.14,53.04 L74.14,54.48 C74.14,55.2 74.12,55.9 74.08,56.58 C74.04,57.26 74.06,57.96 74.14,58.68 C74.14,59.8 74.46,61.2 75.1,62.88 C75.26,63.36 75.46,63.8 75.7,64.2 C75.94,64.6 76.18,65.04 76.42,65.52 C76.5,65.92 76.9,66.48 77.62,67.2 C78.66,68.48 79.74,69.36 80.86,69.84 L80.86,69.84 L82.42,70.68 C82.9,70.92 83.36,71.06 83.8,71.1 C84.24,71.14 84.7,71.16 85.18,71.16 L85.18,71.16 L85.3,71.16 Z M96.46,57.24 L96.22,57.24 C96.14,57.24 96.1,57.2 96.1,57.12 L96.1,57.12 L96.1,56.88 C96.18,56.64 96.38,56.52 96.7,56.52 C96.7,56.12 96.82,55.92 97.06,55.92 C97.3,55.68 97.42,55.72 97.42,56.04 L97.42,56.04 L97.54,56.28 C97.46,56.6 97.22,56.76 96.82,56.76 C96.82,57.08 96.7,57.24 96.46,57.24 L96.46,57.24 Z M90.1,63.96 L89.74,63.96 C89.58,63.8 89.54,63.68 89.62,63.6 C89.94,63.04 90.26,62.76 90.58,62.76 C90.58,62.68 90.6,62.62 90.64,62.58 C90.68,62.54 90.7,62.48 90.7,62.4 C90.7,62.32 90.74,62.28 90.82,62.28 C91.86,61.16 92.78,60.2 93.58,59.4 C94.08,58.9 94.533125,58.446875 94.939375,58.040625 L95.62,57.36 C95.62,57.28 95.74,57.24 95.98,57.24 L95.98,57.24 L96.1,57.24 C96.18,57.32 96.22,57.48 96.22,57.72 C96.22,57.8 96.14,57.92 95.98,58.08 C95.82,58.4 95.56,58.74 95.2,59.1 C95.128,59.172 95.0536,59.2464 94.9768,59.3232 L92.38,61.92 L91.3,62.76 C91.22,62.84 91.02,62.88 90.7,62.88 C90.7,63.44 90.5,63.8 90.1,63.96 L90.1,63.96 Z M108.1,71.16 C108.42,71.16 108.74,71.14 109.06,71.1 C109.38,71.06 109.78,71.04 110.26,71.04 C110.74,70.8 111.1,70.68 111.34,70.68 C111.9,70.68 112.74,70.56 113.86,70.32 C114.58,70.16 115.22,69.88 115.78,69.48 C117.46,68.36 118.5,67.6 118.9,67.2 C119.7,66.72 120.44,66.16 121.12,65.52 C121.8,64.88 122.5,64.24 123.22,63.6 C123.38,63.6 123.54,63.52 123.7,63.36 C124.34,62.56 125.04,61.8 125.8,61.08 C126.56,60.36 127.3,59.56 128.02,58.68 L128.02,58.68 L128.98,57.24 C128.98,57.16 129.22,56.92 129.7,56.52 L129.7,56.52 L132.46,53.76 C132.7,53.68 132.82,53.56 132.82,53.4 C133.22,52.76 133.02,52.28 132.22,51.96 C131.34,51.96 130.46,52.4 129.58,53.28 L129.58,53.28 L126.22,56.52 L120.7,61.92 C119.5,63.12 117.54,64.24 114.82,65.28 L114.82,65.28 L111.82,66.72 C111.1,66.96 110.46,67.08 109.9,67.08 C109.82,67.08 109.46,67.16 108.82,67.32 C108.18,67.72 107.58,67.84 107.02,67.68 C106.62,67.6 106.26,67.5 105.94,67.38 C105.62,67.26 105.26,67.12 104.86,66.96 C104.3,66.64 103.94,66.32 103.78,66 C103.7,65.76 103.42,65.32 102.94,64.68 C102.7,64.6 102.58,64.36 102.58,63.96 C102.42,63.16 102.3,62.48 102.22,61.92 C102.14,61.36 102.06,60.88 101.98,60.48 C101.9,60.24 101.86,59.64 101.86,58.68 C101.86,58.04 101.94,57.4 102.1,56.76 C102.18,56.52 102.22,56.12 102.22,55.56 C102.22,54.6 102.38,53.36 102.7,51.84 L102.7,51.84 L103.9,46.68 C104.14,45.32 104.66,44.04 105.46,42.84 C105.62,42.68 105.7,42.56 105.7,42.48 C105.7,42.16 106.22,41.32 107.26,39.96 C108.38,38.52 109.78,37.4 111.46,36.6 L111.46,36.6 L112.3,36 C112.62,35.68 113.18,35.64 113.98,35.88 L113.944,35.87 L113.95,35.88 C113.96,35.9 113.9675,35.92 113.9725,35.94 L113.98,36 C113.82,36.48 113.98,36.96 114.46,37.44 C114.7,37.52 115.14,37.88 115.78,38.52 C116.1,38.76 116.46,38.8 116.86,38.64 C116.94,38.64 116.98,38.62 116.98,38.58 C116.98,38.54 117.02,38.52 117.1,38.52 L117.1,38.52 L117.22,38.4 L118.78,36.96 C118.86,36.96 118.86,36.8 118.78,36.48 C117.98,34.8 116.86,33.72 115.42,33.24 C114.86,33.24 114.46,33.12 114.22,32.88 C113.26,32.64 112.54,32.56 112.06,32.64 C111.5,32.72 111.02,32.8 110.62,32.88 C110.22,32.96 109.86,33.04 109.54,33.12 C108.82,33.12 108.14,33.28 107.5,33.6 C106.86,34 106.34,34.34 105.94,34.62 C105.54,34.9 105.26,35.12 105.1,35.28 C104.14,36.4 103.24,37.52 102.4,38.64 C101.56,39.76 100.9,40.96 100.42,42.24 C100.1,43.04 99.88,43.68 99.76,44.16 C99.64,44.64 99.54,45 99.46,45.24 C98.58,48.04 98.1,50.72 98.02,53.28 L98.02,53.28 L98.02,54.48 C97.86,55.44 97.82,56.4 97.9,57.36 C97.98,58.32 98.06,59.28 98.14,60.24 C98.38,61.6 98.94,63 99.82,64.44 C100.06,64.68 100.3,65.16 100.54,65.88 L100.54,65.88 L101.38,66.84 C102.18,67.72 102.78,68.28 103.18,68.52 C103.58,68.76 103.96,69.02 104.32,69.3 C104.68,69.58 105.1,69.88 105.58,70.2 C106.3,70.68 107.14,71 108.1,71.16 Z M115.18,35.64 C114.7,35.88 114.26,35.92 113.86,35.76 L113.981,35.802 L113.9824,35.7432 C113.9952,35.3976 114.0592,35.2056 114.1744,35.1672 L114.22,35.16 C114.22,35 114.38,34.88 114.7,34.8 C115.1,34.8 115.3,34.92 115.3,35.16 C115.38,35.24 115.34,35.4 115.18,35.64 Z M129.58,55.32 C129.5,55.24 129.46,55.16 129.46,55.08 C129.14,54.92 129.22,54.84 129.7,54.84 L129.7,54.84 L129.94,55.08 C129.78,55.24 129.66,55.32 129.58,55.32 Z M127.9,57.24 L127.54,57.24 C127.46,57.16 127.42,57.08 127.42,57 C128.14,56.2 128.58,55.72 128.74,55.56 L128.74,55.56 L128.86,55.8 L128.98,56.04 C128.58,56.76 128.22,57.16 127.9,57.24 L127.9,57.24 Z M126.7,58.2 L126.7,57.96 C126.54,57.8 126.66,57.72 127.06,57.72 C127.073333,57.7466667 127.085556,57.7711111 127.096667,57.7933333 L127.18,57.96 C127.18,58.12 127.02,58.2 126.7,58.2 L126.7,58.2 Z M125.38,59.4 L125.38,59.88 C124.9,60.76 124.42,61.24 123.94,61.32 L123.94,61.32 L123.82,61.44 C123.58,61.44 123.46,61.36 123.46,61.2 L123.46,61.2 L123.46,60.96 C124.1,60.32 124.66,59.84 125.14,59.52 C125.14,59.44 125.22,59.4 125.38,59.4 L125.38,59.4 Z M126.58,58.56 L126.557988,58.6828402 C126.45574,59.1486391 126.183077,59.3076923 125.74,59.16 L125.74,59.16 L125.786612,59.0360331 C125.951901,58.6459504 126.216364,58.4872727 126.58,58.56 L126.58,58.56 Z M172.178017,53.985124 C172.164793,53.9586777 172.085455,54.1636364 171.94,54.6 C171.7,55 171.48,55.4 171.28,55.8 C171.08,56.2 170.86,56.56 170.62,56.88 C170.3,57.36 170.04,57.78 169.84,58.14 C169.64,58.5 169.5,58.84 169.42,59.16 C169.34,59.48 169.1,59.76 168.7,60 L168.7,60 L166.9,61.68 C166.66,61.92 166.38,62.12 166.06,62.28 C165.5,62.68 164.92,63.04 164.32,63.36 C163.72,63.68 163.18,63.96 162.7,64.2 C162.22,64.36 161.94,64.44 161.86,64.44 C161.14,64.6 160.74,64.44 160.66,63.96 C160.5,63.8 160.36,63.54 160.24,63.18 C160.12,62.82 159.98,62.4 159.82,61.92 C159.58,61.28 159.42,60.64 159.34,60 C159.26,59.36 159.18,58.72 159.1,58.08 C158.94,57.2 158.78,56.34 158.62,55.5 C158.46,54.66 158.38,53.8 158.38,52.92 C158.22,51.88 158.06,50.8 157.9,49.68 C157.74,48.56 157.62,47.44 157.54,46.32 C157.54,45.68 157.34,44.88 156.94,43.92 C156.54,43.44 156.14,42.64 155.74,41.52 C155.66,41.2 155.38,40.96 154.9,40.8 C153.3,40.4 152.02,40.52 151.06,41.16 C151.044,41.176 151.0296,41.1904 151.0168,41.2032 L150.94,41.28 C150.38,41.52 149.9,41.84 149.5,42.24 L149.5,42.24 L147.1,45.12 C146.46,46 145.82,46.92 145.18,47.88 C144.54,48.84 143.9,49.88 143.26,51 C142.7,51.72 142.38,52.28 142.3,52.68 L142.3,52.68 L139.3,58.44 C139.06,58.76 138.86,59.16 138.7,59.64 C138.54,60.2 138.18,61 137.62,62.04 C137.54,62.2 137.44,62.36 137.32,62.52 C137.2,62.68 137.14,62.8 137.14,62.88 C136.82,63.76 136.48,64.6 136.12,65.4 C135.76,66.2 135.46,67 135.22,67.8 C134.74,68.84 134.28,69.9 133.84,70.98 C133.4,72.06 133.06,73.12 132.82,74.16 L132.82,74.16 L132.7,74.4 L132.7,74.4 L132.58,74.52 C132.42,74.52 132.34,74.44 132.34,74.28 C132.34,73.4 132.32,72.52 132.28,71.64 C132.24,70.76 132.34,69.84 132.58,68.88 C132.66,68.72 132.7,68.36 132.7,67.8 C132.7,66.84 132.78,65.86 132.94,64.86 C133.1,63.86 133.22,62.88 133.3,61.92 C133.3,61.2 133.36,60.44 133.48,59.64 C133.6,58.84 133.66,58.04 133.66,57.24 C133.66,56.92 133.7,56.72 133.78,56.64 C134.02,55.44 134.1,54.4 134.02,53.52 C133.86,52.8 133.94,52.16 134.26,51.6 C134.42,51.12 134.5,50.8 134.5,50.64 C134.5,49.52 134.7,47.96 135.1,45.96 C135.18,45.88 135.22,45.6 135.22,45.12 C136.18,38.48 137.42,31.8 138.94,25.08 C139.1,24.36 139.26,23.6 139.42,22.8 C139.58,22 139.78,21.2 140.02,20.4 C140.02,20.16 140.06,19.9 140.14,19.62 C140.22,19.34 140.3,19.08 140.38,18.84 C140.62,18.2 140.8,17.56 140.92,16.92 C141.04,16.28 141.22,15.6 141.46,14.88 C141.62,14.08 141.72,13.26 141.76,12.42 C141.8,11.58 141.94,10.72 142.18,9.84 C142.26,9.6 142.26,9.32 142.18,9 C142.1,8.76 142.02,8.48 141.94,8.16 C141.86,7.84 141.82,7.52 141.82,7.2 C141.42,6.48 141.06,6.08 140.74,6 C140.02,5.84 139.62,5.8 139.54,5.88 C138.74,5.88 137.98,6 137.26,6.24 C136.86,6.24 136.62,6.48 136.54,6.96 C136.38,7.6 136.3,7.96 136.3,8.04 C136.3,8.76 136.22,9.44 136.06,10.08 C135.9,10.72 135.78,11.36 135.7,12 C135.38,13.04 135.14,14.08 134.98,15.12 L134.98,15.12 L132.94,24.96 L132.58,26.88 C131.94,29.84 131.42,32.74 131.02,35.58 C130.62,38.42 130.18,41.28 129.7,44.16 C129.46,45.68 129.26,47.18 129.1,48.66 C128.94,50.14 128.78,51.6 128.62,53.04 L128.62,53.04 L128.26,56.16 C128.26,57.12 128.2,58.06 128.08,58.98 C127.96,59.9 127.86,60.8 127.78,61.68 C127.78,61.92 127.76,62.12 127.72,62.28 C127.68,62.44 127.62,62.6 127.54,62.76 C127.54,63 127.52,63.24 127.48,63.48 C127.44,63.72 127.42,63.96 127.42,64.2 C127.34,65.08 127.26,65.92 127.18,66.72 C127.1,67.52 126.98,68.32 126.82,69.12 C126.74,70.32 126.62,71.5 126.46,72.66 C126.3,73.82 126.18,75 126.1,76.2 C126.1,76.44 126.08,76.62 126.04,76.74 C126,76.86 125.98,76.96 125.98,77.04 C125.74,77.92 125.62,79.28 125.62,81.12 C125.62,81.36 125.7,81.86 125.86,82.62 C126.02,83.38 126.14,83.88 126.22,84.12 C126.78,85.16 127.38,85.6 128.02,85.44 C128.34,85.6 128.66,85.7 128.98,85.74 C129.3,85.78 129.66,85.88 130.06,86.04 C130.38,86.12 130.7,86 131.02,85.68 C131.34,85.36 131.5,85.12 131.5,84.96 C131.5,84.24 131.9,83.84 132.7,83.76 C133.1,83.76 133.34,83.6 133.42,83.28 L133.42,83.28 L134.14,81.96 C134.62,81.4 134.86,80.72 134.86,79.92 C134.86,79.44 135.02,78.84 135.34,78.12 C135.34,77.88 135.38,77.66 135.46,77.46 C135.54,77.26 135.62,77.04 135.7,76.8 C136.02,75.6 136.36,74.36 136.72,73.08 C137.08,71.8 137.58,70.52 138.22,69.24 C138.38,68.76 138.46,68.52 138.46,68.52 C138.62,67.88 138.9,67.06 139.3,66.06 C139.7,65.06 140.18,63.92 140.74,62.64 C140.98,62 141.22,61.46 141.46,61.02 C141.7,60.58 141.9,60.2 142.06,59.88 C142.38,59.32 142.76,58.66 143.2,57.9 C143.64,57.14 144.14,56.24 144.7,55.2 C144.7,55.12 144.74,55.04 144.82,54.96 C144.9,54.88 144.98,54.76 145.06,54.6 C145.3,54.12 145.58,53.66 145.9,53.22 C146.22,52.78 146.54,52.32 146.86,51.84 C146.94,51.6 147.26,51.12 147.82,50.4 L147.82,50.4 L149.02,48.84 C149.34,48.36 149.7,47.88 150.1,47.4 L150.1,47.4 L151.3,45.96 C151.7,45.56 152.06,45.6 152.38,46.08 L152.38,46.08 L152.98,48.24 C153.06,48.96 153.14,49.58 153.22,50.1 C153.3,50.62 153.38,51.08 153.46,51.48 C153.62,52.68 153.8,53.9 154,55.14 C154.2,56.38 154.42,57.6 154.66,58.8 C154.9,60.8 155.3,62.4 155.86,63.6 C156.42,64.88 156.82,65.64 157.06,65.88 C157.46,66.52 157.86,66.88 158.26,66.96 C159.54,67.44 160.5,67.64 161.14,67.56 C161.86,67.56 162.34,67.52 162.58,67.44 C163.22,67.6 163.9,67.54 164.62,67.26 C165.34,66.98 166.1,66.76 166.9,66.6 C166.9,66.52 166.94,66.48 167.02,66.48 C167.1,66.48 167.18,66.44 167.26,66.36 C168.54,65.8 169.7,64.8 170.74,63.36 C171.06,62.88 171.38,62.38 171.7,61.86 C172.02,61.34 172.38,60.8 172.78,60.24 C173.18,59.76 173.42,59.24 173.5,58.68 C173.58,58.36 173.68,57.96 173.8,57.48 C173.92,57 174.1,56.44 174.34,55.8 C174.42,55.56 174.52,55.28 174.64,54.96 C174.76,54.64 174.9,54.32 175.06,54 C175.22,53.2 175.26,52.64 175.18,52.32 C175.18,52.16 175.1,52 174.94,51.84 L174.94,51.84 L174.34,51.24 C174.26,51.16 174.1,51.16 173.86,51.24 C173.54,51.72 173.2,52.18 172.84,52.62 C172.48,53.06 172.26,53.52 172.18,54 L172.18,53.998 L172.178017,53.985124 Z M149.122222,45.2785185 C149.098519,45.057284 149.264444,44.8044444 149.62,44.52 L149.512,44.612 L149.518,44.658 C149.55,45.01 149.454,45.234 149.23,45.33 L149.14,45.36 L149.14,45.36 L149.122222,45.2785185 Z M147.094,48.066 L147.087929,47.9928994 C147.065207,47.4930178 147.349231,47.0953846 147.94,46.8 L147.817,46.866 L147.814167,46.9558333 C147.775278,47.4613889 147.541944,47.8280556 147.114167,48.0558333 L147.094,48.066 Z M139.901481,60.3274074 C139.909383,59.9402469 139.948889,59.7111111 140.02,59.64 C140.34,58.36 140.94,57 141.82,55.56 C142.22,54.92 142.56,54.36 142.84,53.88 C143.12,53.4 143.34,52.96 143.5,52.56 C143.74,52.16 144.06,51.66 144.46,51.06 C144.86,50.46 145.34,49.76 145.9,48.96 C146.14,48.4 146.54,48.12 147.1,48.12 L146.98,48.126 L146.97625,48.2925 C146.96125,48.6225 146.90125,48.8625 146.79625,49.0125 L146.74,49.08 C146.34,49.64 145.98,50.18 145.66,50.7 C145.34,51.22 145.02,51.72 144.7,52.2 C144.38,52.68 144.08,53.14 143.8,53.58 C143.52,54.02 143.26,54.48 143.02,54.96 C142.7,55.6 142.36,56.22 142,56.82 C141.64,57.42 141.34,58 141.1,58.56 C141.02,58.72 140.94,58.88 140.86,59.04 C140.78,59.2 140.7,59.4 140.62,59.64 C140.54,60.04 140.3,60.32 139.9,60.48 L139.9,60.48 L139.901481,60.3274074 Z M148.3,46.32 C148.3,46.5688889 148.20321,46.7209877 148.00963,46.7762963 L147.94,46.791 L147.944444,46.6992593 C147.965185,46.4780247 148.058519,46.3535802 148.224444,46.3259259 L148.3,46.32 Z M190.18,99.48 C190.98,99.72 191.82,99.72 192.7,99.48 C192.86,99.48 193.04,99.44 193.24,99.36 C193.44,99.28 193.66,99.2 193.9,99.12 C194.38,99.04 194.86,98.8 195.34,98.4 C195.66,98.24 196.02,98.02 196.42,97.74 C196.82,97.46 197.3,97.12 197.86,96.72 L197.86,96.72 L198.34,96.24 C197.7,96.24 197.26,96.36 197.02,96.6 C196.86,96.68 196.72,96.78 196.6,96.9 C196.48,97.02 196.38,97.08 196.3,97.08 C195.66,97.48 195.06,97.68 194.5,97.68 C193.94,97.68 193.42,97.8 192.94,98.04 C192.108,98.248 191.666578,98.3658667 191.615733,98.3936 L191.612,98.396 L191.486667,98.3333333 C191.433333,98.3066667 191.4,98.29 191.386667,98.2833333 C191.382222,98.0411111 191.42,97.88 191.5,97.8 C191.9,97.4 192.34,97.16 192.82,97.08 C193.46,96.76 194,96.48 194.44,96.24 C194.88,96 195.3,95.72 195.7,95.4 L195.7,95.4 L197.26,94.32 C198.46,93.52 199.66,92.56 200.86,91.44 C200.94,91.36 201.1,91.22 201.34,91.02 L201.466667,90.915 C201.688889,90.7316667 201.966667,90.5066667 202.3,90.24 L202.291,90.247 C202.3118,90.2047333 202.7081,89.7008 203.4799,88.7352 L203.62,88.56 C203.78,88.4 204.02,88.24 204.34,88.08 L204.34,88.08 L204.46,87.96 C204.62,88.12 204.7,88.24 204.7,88.32 L204.7,88.32 L204.7,88.56 C204.62,88.72 204.52,88.84 204.4,88.92 C204.28,89 204.22,89.08 204.22,89.16 C203.98,89.72 204.06,90.08 204.46,90.24 C204.86,90.24 205.14,90.16 205.3,90 C205.46,89.92 205.78,89.64 206.26,89.16 L206.26,89.16 L207.22,88.2 C208.02,87.4 208.66,86.88 209.14,86.64 L209.14,86.64 L209.86,86.04 L211.06,84.6 C211.22,84.52 211.32,84.38 211.36,84.18 C211.4,83.98 211.5,83.8 211.66,83.64 L211.66,83.64 L212.5,81.96 C212.82,81.56 213.02,80.96 213.1,80.16 C213.1,79.12 213.14,78.44 213.22,78.12 C213.22,77.4 213.1,76.72 212.86,76.08 C212.46,74.72 212.26,73.96 212.26,73.8 L212.26,73.8 L212.02,73.08 C211.94,72.84 211.82,72.56 211.66,72.24 C210.86,71.12 210.14,70.12 209.5,69.24 C208.86,68.36 208.22,67.6 207.58,66.96 C206.7,66.16 205.86,65.32 205.06,64.44 C204.98,64.36 204.94,64.28 204.94,64.2 L204.94,64.2 L204.94,63.84 C205.42,63.2 205.86,62.66 206.26,62.22 C206.66,61.78 207.02,61.44 207.34,61.2 L207.34,61.2 L208.9,59.88 C209.38,59.4 209.96,58.94 210.64,58.5 C211.32,58.06 211.98,57.56 212.62,57 C212.7,57 212.8,56.94 212.92,56.82 C213.04,56.7 213.18,56.6 213.34,56.52 L213.34,56.52 L217.3,54 C217.78,53.92 218.26,53.68 218.74,53.28 C220.34,52.48 221.9,51.76 223.42,51.12 C224.94,50.48 226.38,49.96 227.74,49.56 C228.7,49.24 229.46,49.08 230.02,49.08 C230.02,49.08 230.26,49 230.74,48.84 C231.06,48.68 231.5,48.6 232.06,48.6 C232.22,48.52 232.54,48.48 233.02,48.48 C233.82,48.24 234.64,48.12 235.48,48.12 L235.48,48.12 L238.06,48.12 C238.06,48.12 238.38,48.2 239.02,48.36 C239.26,48.52 239.48,48.68 239.68,48.84 C239.88,49 240.1,49.12 240.34,49.2 C240.82,49.36 241.06,49.44 241.06,49.44 C241.3,49.6 241.66,49.6 242.14,49.44 C242.78,49.28 242.9,48.88 242.5,48.24 L242.5,48.24 L240.82,46.68 C240.18,46.2 239.62,45.92 239.14,45.84 L239.14,45.84 L237.82,45.48 C237.74,45.4 237.42,45.36 236.86,45.36 C236.06,45.28 235.3,45.26 234.58,45.3 C233.86,45.34 233.18,45.4 232.54,45.48 C231.98,45.56 231.48,45.62 231.04,45.66 C230.6,45.7 230.22,45.72 229.9,45.72 C229.58,45.72 229.38,45.76 229.3,45.84 C228.82,46.08 228.32,46.22 227.8,46.26 C227.28,46.3 226.78,46.4 226.3,46.56 C224.94,46.96 224.14,47.16 223.9,47.16 C223.42,47.32 222.96,47.5 222.52,47.7 C222.08,47.9 221.66,48.04 221.26,48.12 C220.54,48.44 219.82,48.74 219.1,49.02 C218.38,49.3 217.66,49.64 216.94,50.04 C214.94,51.08 213.14,52.12 211.54,53.16 C209.94,54.2 208.5,55.24 207.22,56.28 C206.5,56.84 205.84,57.38 205.24,57.9 C204.64,58.42 204.02,58.92 203.38,59.4 L203.38,59.4 L201.58,60.84 C201.5,61 201.46,61.08 201.46,61.08 C201.22,61.24 200.98,61.24 200.74,61.08 C199.3,60.04 197.82,58.8 196.3,57.36 C196.14,57.28 195.92,57.1 195.64,56.82 C195.36,56.54 194.98,56.2 194.5,55.8 C193.78,55.48 193.1,54.84 192.46,53.88 C192.3,53.72 192.1,53.5 191.86,53.22 C191.62,52.94 191.34,52.6 191.02,52.2 C190.3,51.48 189.86,50.56 189.7,49.44 C189.54,48.64 189.46,47.96 189.46,47.4 C189.46,46.84 189.5,46.52 189.58,46.44 C189.74,46.04 189.86,45.7 189.94,45.42 C190.02,45.14 190.1,44.84 190.18,44.52 C190.34,44.12 190.48,43.76 190.6,43.44 C190.72,43.12 190.86,42.8 191.02,42.48 C191.26,42 191.54,41.48 191.86,40.92 C192.18,40.36 192.46,39.8 192.7,39.24 L192.7,39.24 L193.18,38.64 C193.82,37.68 194.38,36.96 194.86,36.48 C194.78,36.56 194.98,36.24 195.46,35.52 C195.94,34.96 196.4,34.38 196.84,33.78 C197.28,33.18 197.78,32.6 198.34,32.04 C200.42,29.64 202.42,27.6 204.34,25.92 C204.66,25.68 205,25.4 205.36,25.08 C205.72,24.76 206.1,24.44 206.5,24.12 C207.46,23.4 208.34,22.64 209.14,21.84 L209.14,21.84 L211.54,19.32 C211.86,19.08 212.18,18.78 212.5,18.42 C212.82,18.06 213.22,17.76 213.7,17.52 C214.18,17.04 214.68,16.58 215.2,16.14 C215.72,15.7 216.26,15.24 216.82,14.76 L216.82,14.76 L219.94,11.88 C220.98,10.84 222.1,10.04 223.3,9.48 L223.3,9.48 L224.98,8.64 C225.86,8 226.8,7.46 227.8,7.02 C228.8,6.58 229.78,6.12 230.74,5.64 C231.22,5.48 231.54,5.4 231.7,5.4 C232.02,5.32 232.34,5.12 232.66,4.8 C233.06,4.4 233.54,4.2 234.1,4.2 C234.1,4.2 234.34,4.12 234.82,3.96 C234.9,3.96 234.98,3.92 235.06,3.84 L235.06,3.84 L235.3,3.6 C235.62,3.44 236.02,3.4 236.5,3.48 C236.58,3.48 236.66,3.5 236.74,3.54 C236.82,3.58 236.94,3.6 237.1,3.6 C237.26,3.76 237.42,3.76 237.58,3.6 C237.82,3.52 238.02,3.44 238.18,3.36 C238.34,3.28 238.5,3.2 238.66,3.12 C238.98,3.04 239.34,3.04 239.74,3.12 C239.82,3.2 239.9,3.24 239.98,3.24 L239.98,3.24 L240.22,3.24 C240.7,3.72 240.98,4.08 241.06,4.32 L241.06,4.32 L241.42,5.88 C241.5,6.52 241.46,7.16 241.3,7.8 C241.3,7.88 241.28,7.98 241.24,8.1 C241.2,8.22 241.18,8.32 241.18,8.4 C241.02,8.8 241.14,9.04 241.54,9.12 C241.86,9.28 241.94,9.44 241.78,9.6 C241.46,10.32 240.98,11 240.34,11.64 C240.1,11.88 239.82,12 239.5,12 C239.1,11.84 238.82,11.96 238.66,12.36 L238.66,12.36 L237.82,13.44 L237.58,13.68 C237.5,13.76 237.46,13.84 237.46,13.92 C237.06,14.56 236.66,15.08 236.26,15.48 C235.38,16.28 234.62,17.24 233.98,18.36 C233.74,18.6 233.54,18.84 233.38,19.08 L233.38,19.08 L232.9,19.8 L232.42,20.4 C231.94,20.72 231.52,21.08 231.16,21.48 C230.8,21.88 230.42,22.24 230.02,22.56 C229.38,23.12 228.8,23.68 228.28,24.24 C227.76,24.8 227.18,25.28 226.54,25.68 L226.54,25.68 L225.94,26.16 C225.3,26.72 224.74,27.22 224.26,27.66 C223.78,28.1 223.38,28.48 223.06,28.8 C222.66,29.2 222.14,29.68 221.5,30.24 C220.86,30.8 220.1,31.44 219.22,32.16 L219.22,32.16 L217.54,33 C217.3,33.08 217.1,33.28 216.94,33.6 L216.94,33.6 L216.34,34.44 C216.18,34.6 216.18,34.8 216.34,35.04 C216.34,35.28 216.36,35.46 216.4,35.58 C216.44,35.7 216.5,35.84 216.58,36 C216.74,36.48 216.94,36.8 217.18,36.96 C217.82,37.44 218.3,37.72 218.62,37.8 C218.78,37.96 219.06,37.92 219.46,37.68 L219.46,37.68 L219.58,37.56 C219.74,37.4 219.96,37.2 220.24,36.96 C220.52,36.72 220.86,36.48 221.26,36.24 C221.66,36.08 222.04,35.9 222.4,35.7 C222.76,35.5 223.14,35.28 223.54,35.04 C223.94,34.88 224.26,34.62 224.5,34.26 C224.74,33.9 225.02,33.56 225.34,33.24 C225.5,33.16 225.64,33.06 225.76,32.94 C225.88,32.82 226.06,32.68 226.3,32.52 L226.3,32.52 L233.74,25.44 L236.62,22.8 L236.98,22.44 C237.62,21.8 238.14,21.12 238.54,20.4 C238.78,19.84 239.1,19.28 239.5,18.72 C239.9,18.16 240.3,17.52 240.7,16.8 C240.78,16.56 240.94,16.32 241.18,16.08 C241.5,15.68 241.84,15.22 242.2,14.7 C242.56,14.18 242.98,13.56 243.46,12.84 C243.7,12.6 243.9,12.32 244.06,12 C244.22,11.68 244.42,11.4 244.66,11.16 C244.66,11 244.7,10.86 244.78,10.74 C244.86,10.62 244.94,10.44 245.02,10.2 C245.02,9.72 245.06,9.44 245.14,9.36 C245.3,8.72 245.34,8.2 245.26,7.8 C245.1,7 245.02,6.52 245.02,6.36 C244.94,6.2 244.86,6.04 244.78,5.88 C244.7,5.72 244.66,5.52 244.66,5.28 C244.42,5.04 244.22,4.76 244.06,4.44 C243.9,4.12 243.74,3.8 243.58,3.48 C243.26,3.08 242.86,2.72 242.38,2.4 C242.22,2.32 241.96,2.18 241.6,1.98 C241.24,1.78 240.74,1.52 240.1,1.2 C239.94,1.2 239.8,1.18 239.68,1.14 C239.56,1.1 239.46,1.08 239.38,1.08 C239.14,1.08 238.9,1.06 238.66,1.02 C238.42,0.98 238.18,0.96 237.94,0.96 C237.54,0.96 237.1,0.88 236.62,0.72 C235.82,0.48 235.06,0.48 234.34,0.72 C234.02,0.8 233.7,0.88 233.38,0.96 C233.06,1.04 232.78,1.08 232.54,1.08 C231.58,1.24 231.02,1.28 230.86,1.2 C230.7,1.2 230.6,1.22 230.56,1.26 C230.52,1.3 230.46,1.32 230.38,1.32 L230.38,1.32 L230.26,1.32 C229.38,1.56 228.64,1.8 228.04,2.04 C227.44,2.28 226.94,2.48 226.54,2.64 C225.98,2.88 225.46,3.14 224.98,3.42 C224.5,3.7 224.02,3.84 223.54,3.84 C223.38,3.92 223.26,3.96 223.18,3.96 C223.1,3.96 223.06,4 223.06,4.08 C222.02,4.48 220.92,5.04 219.76,5.76 C218.6,6.48 217.34,7.28 215.98,8.16 C215.5,8.4 215.08,8.68 214.72,9 C214.36,9.32 213.94,9.6 213.46,9.84 C213.22,10 213.02,10.16 212.86,10.32 C212.7,10.48 212.54,10.6 212.38,10.68 C211.34,11.72 210.38,12.52 209.5,13.08 C208.94,13.56 208.36,14.02 207.76,14.46 C207.16,14.9 206.62,15.36 206.14,15.84 L206.14,15.84 L205.18,16.56 C204.3,17.12 203.62,17.64 203.14,18.12 C201.7,19.08 200.38,20.16 199.18,21.36 C199.02,21.6 198.66,22 198.1,22.56 C197.3,23.36 196.56,24.16 195.88,24.96 C195.2,25.76 194.5,26.52 193.78,27.24 C193.3,27.96 192.76,28.64 192.16,29.28 C191.56,29.92 191.06,30.6 190.66,31.32 L190.66,31.32 L190.18,31.8 L189.1,33 C188.7,33.48 188.34,34 188.02,34.56 C187.7,35.12 187.38,35.64 187.06,36.12 C186.82,36.52 186.56,37.04 186.28,37.68 C186,38.32 185.7,39.08 185.38,39.96 C185.22,40.44 185.14,40.72 185.14,40.8 L185.14,40.8 L184.9,44.28 L184.9,44.76 L185.26,47.52 L185.26,47.52 L185.74,48.96 C185.9,49.44 186.1,49.92 186.34,50.4 C186.34,50.32 186.42,50.52 186.58,51 C186.58,51.32 186.66,51.48 186.82,51.48 C187.22,52.2 187.86,53 188.74,53.88 C189.46,54.6 190.18,55.34 190.9,56.1 C191.62,56.86 192.42,57.52 193.3,58.08 C193.78,58.48 194.28,58.9 194.8,59.34 C195.32,59.78 195.86,60.16 196.42,60.48 L196.42,60.48 L199.3,62.88 C199.62,63.2 199.66,63.56 199.42,63.96 C199.02,64.44 198.78,64.84 198.7,65.16 C198.3,65.64 197.96,66.06 197.68,66.42 C197.4,66.78 197.18,67.08 197.02,67.32 C196.22,68.36 195.54,69.26 194.98,70.02 C194.42,70.78 193.94,71.44 193.54,72 C192.5,73.68 191.94,74.64 191.86,74.88 C191.46,75.36 191.22,75.76 191.14,76.08 C190.98,76.24 190.9,76.44 190.9,76.68 C190.82,77.08 190.58,77.48 190.18,77.88 C189.86,78.36 189.62,78.92 189.46,79.56 L189.46,79.56 L189.22,80.04 C189.14,80.2 189.1,80.32 189.1,80.4 L189.1,80.4 L188.02,82.44 C187.62,83.24 187.32,83.86 187.12,84.3 C186.92,84.74 186.78,85.04 186.7,85.2 C186.54,85.76 186.38,86.24 186.22,86.64 C186.06,87.04 185.9,87.36 185.74,87.6 C185.74,87.76 185.72,87.9 185.68,88.02 C185.64,88.14 185.62,88.24 185.62,88.32 C185.62,88.56 185.6,88.82 185.56,89.1 C185.52,89.38 185.5,89.64 185.5,89.88 C185.5,90.12 185.54,90.28 185.62,90.36 C185.62,90.52 185.74,90.72 185.98,90.96 C185.98,91.44 186.02,91.64 186.1,91.56 C186.1,91.8 186.08,91.98 186.04,92.1 C186,92.22 185.98,92.36 185.98,92.52 C185.66,93.32 185.66,94.08 185.98,94.8 C185.98,95.28 186.06,95.84 186.22,96.48 C186.3,96.96 186.54,97.44 186.94,97.92 C187.74,98.56 188.26,98.88 188.5,98.88 C188.82,99.04 189.1,99.16 189.34,99.24 C189.58,99.32 189.86,99.4 190.18,99.48 Z M205.18,60.12 C205.1,60.04 205.02,60 204.94,60 C204.86,59.92 204.82,59.76 204.82,59.52 C204.9,59.52 204.94,59.48 204.94,59.4 C204.94,59.32 204.98,59.24 205.06,59.16 L205.06,59.16 L205.9,58.32 C206.7,57.76 207.5,57.14 208.3,56.46 C209.1,55.78 209.98,55.16 210.94,54.6 L210.94,54.6 L211.9,53.88 C212.22,53.64 212.62,53.4 213.1,53.16 C213.66,52.68 214.38,52.2 215.26,51.72 L215.26,51.72 L216.1,51.36 L218.26,50.16 L218.5,50.16 L218.86,50.28 L218.86,50.52 L218.5,50.88 C218.34,51.04 218.14,51.16 217.9,51.24 C217.5,51.4 217.14,51.58 216.82,51.78 C216.5,51.98 216.18,52.16 215.86,52.32 C213.54,53.76 211.3,55.28 209.14,56.88 L209.14,56.88 L205.54,59.88 C205.46,59.96 205.38,60 205.3,60 C205.22,60 205.18,60.04 205.18,60.12 Z M200.23,65.47 L200.1875,65.4008333 C199.949167,64.9669444 200.013333,64.5666667 200.38,64.2 L200.38,64.2 L200.62,64.2 C200.7,64.2 200.82,64.28 200.98,64.44 C200.98,64.6 200.94,64.72 200.86,64.8 L200.86,64.8 L200.26,65.4 L200.26,65.4 L200.23,65.47 Z M198.22,67.92 C198.06,68.16 197.94,68.16 197.86,67.92 L197.86,67.92 L197.86,67.44 L199.42,65.52 C199.5,65.44 199.58,65.4 199.66,65.4 C199.74,65.4 199.82,65.36 199.9,65.28 C199.98,65.28 200.1,65.36 200.26,65.52 L200.223,65.485 L200.1725,65.6008333 C199.855833,66.2730556 199.289167,66.9730556 198.4725,67.7008333 L198.22,67.92 Z M190.54,96.12 C189.9,96.36 189.18,96.28 188.38,95.88 L188.38,95.88 L187.78,95.16 C187.78,95.08 187.76,94.98 187.72,94.86 C187.68,94.74 187.66,94.6 187.66,94.44 C187.58,93.88 187.58,93.32 187.66,92.76 L187.66,92.76 L187.66,92.64 C187.66,92.56 187.68,92.52 187.72,92.52 C187.76,92.52 187.78,92.48 187.78,92.4 C187.86,92.16 187.9,91.6 187.9,90.72 C187.74,90.4 187.82,90.2 188.14,90.12 C188.3,89.88 188.5,89.68 188.74,89.52 C188.98,89.36 189.22,89.16 189.46,88.92 C189.7,88.6 189.82,88.32 189.82,88.08 C189.74,87.76 189.74,87.44 189.82,87.12 C189.9,86.64 190.14,85.96 190.54,85.08 C190.94,84.04 191.3,83.14 191.62,82.38 C191.94,81.62 192.26,81 192.58,80.52 L192.58,80.52 L193.54,78.84 C193.78,78.28 194.14,77.68 194.62,77.04 C195.02,76.64 195.42,76.08 195.82,75.36 C195.9,74.88 196.46,73.96 197.5,72.6 C197.58,72.36 197.66,72.24 197.74,72.24 C198.22,72 198.6,71.64 198.88,71.16 C199.16,70.68 199.54,70.24 200.02,69.84 C200.18,69.68 200.34,69.4 200.5,69 L200.5,69 L202.66,66.36 C202.9,65.8 203.18,65.76 203.5,66.24 C203.74,66.48 203.94,66.6 204.1,66.6 C204.58,67.08 205.02,67.62 205.42,68.22 C205.82,68.82 206.26,69.36 206.74,69.84 C206.74,70.08 206.8,70.28 206.92,70.44 C207.04,70.6 207.14,70.76 207.22,70.92 C207.22,71.16 207.26,71.32 207.34,71.4 C207.74,72.44 207.94,73.56 207.94,74.76 L207.94,74.76 L207.94,75.48 C207.94,75.96 207.92,76.4 207.88,76.8 C207.84,77.2 207.82,77.6 207.82,78 C207.74,78.4 207.66,78.82 207.58,79.26 C207.5,79.7 207.38,80.2 207.22,80.76 C207.14,80.84 207.1,80.92 207.1,81 C207.1,81.08 207.06,81.16 206.98,81.24 C206.42,82.36 206.02,83.08 205.78,83.4 C205.46,84.36 204.94,85.04 204.22,85.44 L204.22,85.44 L203.62,86.16 C202.66,87.2 201.06,88.68 198.82,90.6 L198.82,90.6 L196.54,92.64 C195.74,93.28 195.02,93.82 194.38,94.26 C193.74,94.7 193.18,95.04 192.7,95.28 C192.46,95.44 191.74,95.72 190.54,96.12 Z M196.66,69.96 C196.5,69.8 196.42,69.64 196.42,69.48 C196.58,69.08 196.82,68.88 197.14,68.88 L197.14,68.88 L197.26,69 C197.42,69.4 197.26,69.68 196.78,69.84 L196.78,69.84 L196.66,69.96 Z M256.18,98.88 C256.82,98.8 257.38,98.68 257.86,98.52 C258.34,98.36 258.78,98.2 259.18,98.04 L259.18,98.04 L259.3,97.92 C259.38,97.84 259.42,97.72 259.42,97.56 L259.42,97.56 L259.42,96.72 C259.34,96.48 259.26,96.4 259.18,96.48 C257.82,96.88 257.02,97.08 256.78,97.08 C255.26,97.24 254.18,97.04 253.54,96.48 C252.66,95.92 252.14,95.6 251.98,95.52 C251.42,95.2 250.88,94.84 250.36,94.44 C249.84,94.04 249.3,93.64 248.74,93.24 C247.54,92.36 246.74,91.36 246.34,90.24 C246.18,90.08 246.06,89.88 245.98,89.64 C245.5,88.92 244.98,87.84 244.42,86.4 C244.1,85.84 243.88,85.26 243.76,84.66 C243.64,84.06 243.42,83.48 243.1,82.92 C242.94,82.52 242.8,81.98 242.68,81.3 C242.56,80.62 242.42,79.84 242.26,78.96 C242.18,78.48 242.1,77.88 242.02,77.16 C241.94,76.44 241.82,75.6 241.66,74.64 C241.66,74.08 241.62,73.72 241.54,73.56 C241.62,73.08 241.64,72.56 241.6,72 C241.56,71.44 241.54,70.84 241.54,70.2 C241.62,68.92 241.62,67.92 241.54,67.2 C241.46,66.88 241.44,66.52 241.48,66.12 C241.52,65.72 241.58,65.28 241.66,64.8 C241.66,63.92 241.7,63.06 241.78,62.22 C241.86,61.38 241.9,60.52 241.9,59.64 L241.9,59.64 L241.9,59.28 C242.06,58.8 242.14,58.34 242.14,57.9 C242.14,57.46 242.22,57 242.38,56.52 C242.46,55.56 242.54,54.72 242.62,54 C242.7,53.28 242.78,52.68 242.86,52.2 C242.94,51.64 243,51.08 243.04,50.52 C243.08,49.96 243.18,49.36 243.34,48.72 L243.34,48.72 L243.58,47.28 C243.66,46.88 243.74,46.46 243.82,46.02 C243.9,45.58 244.06,45.12 244.3,44.64 C245.1,40.48 245.68,37.28 246.04,35.04 C246.4,32.8 246.62,31.52 246.7,31.2 L246.7,31.2 L247.06,29.28 C247.22,28.88 247.34,28.38 247.42,27.78 C247.5,27.18 247.58,26.44 247.66,25.56 C247.66,25.08 247.74,24.6 247.9,24.12 C248.06,23.64 248.18,23.14 248.26,22.62 C248.34,22.1 248.46,21.56 248.62,21 C248.7,19.96 249.06,18.28 249.7,15.96 C249.78,15.48 249.98,15.24 250.3,15.24 L250.3,15.24 L252.34,14.52 C253.06,14.36 253.78,14.24 254.5,14.16 C255.22,14.08 255.9,13.96 256.54,13.8 L256.54,13.8 L259.06,13.32 C259.14,13.32 259.18,13.24 259.18,13.08 L259.18,13.08 L259.18,12.72 C259.153333,12.7066667 259.128889,12.6944444 259.106667,12.6833333 L258.94,12.6 C258.54,12.52 258.16,12.46 257.8,12.42 C257.44,12.38 257.18,12.36 257.02,12.36 C256.7,12.36 256.38,12.38 256.06,12.42 C255.74,12.46 255.42,12.48 255.1,12.48 C255.1,12.56 255.02,12.6 254.86,12.6 L254.86,12.6 L254.74,12.6 C254.66,12.68 253.98,12.84 252.7,13.08 C252.62,13 252.58,12.92 252.58,12.84 C252.58,12.76 252.62,12.72 252.7,12.72 L252.7,12.72 L252.775918,12.6832653 C252.942449,12.604898 253.197143,12.4971429 253.54,12.36 L253.54,12.36 L253.54,12.12 C253.46,12.04 253.62,11.84 254.02,11.52 C254.5,11.36 254.78,11.28 254.86,11.28 L254.86,11.28 L258.46,10.8 C258.86,10.72 259.24,10.66 259.6,10.62 C259.96,10.58 260.22,10.56 260.38,10.56 C260.86,10.48 261.28,10.44 261.64,10.44 C262,10.44 262.26,10.4 262.42,10.32 C262.82,10.16 263.22,10.16 263.62,10.32 L263.62,10.32 L264.82,10.32 C265.14,10.32 265.5,10.36 265.9,10.44 C266.3,10.52 266.7,10.52 267.1,10.44 L267.1,10.44 L267.46,10.44 C268.42,10.52 269.28,10.6 270.04,10.68 C270.8,10.76 271.5,10.88 272.14,11.04 C272.46,11.12 272.82,11.2 273.22,11.28 C273.62,11.36 274.1,11.48 274.66,11.64 C274.98,11.88 275.54,12.04 276.34,12.12 C277.78,12.52 278.5,12.72 278.5,12.72 C278.9,12.88 279.1,12.96 279.1,12.96 C279.34,13.04 279.52,13.1 279.64,13.14 C279.76,13.18 279.94,13.2 280.18,13.2 L280.18,13.2 L280.3,13.2 C280.22,13.28 280.14,13.32 280.06,13.32 L280.06,13.32 L276.58,12.84 L275.74,12.6 C275.18,12.28 274.42,12.12 273.46,12.12 C272.9,12.12 272.3,12.04 271.66,11.88 C271.02,11.72 270.46,11.72 269.98,11.88 C269.18,12.04 268.66,12.08 268.42,12 C268.18,12.08 267.98,12.1 267.82,12.06 C267.66,12.02 267.5,12 267.34,12 C266.78,12.24 266.1,12.2 265.3,11.88 C264.9,11.88 264.62,11.92 264.46,12 C264.38,12.08 263.98,12.2 263.26,12.36 C263.26,12.36 263.18,12.44 263.02,12.6 C262.94,12.6 262.9,12.64 262.9,12.72 L262.9,12.72 L262.9,12.84 C262.98,12.84 263.08,12.86 263.2,12.9 C263.32,12.94 263.46,12.96 263.62,12.96 C264.34,12.88 265.02,12.86 265.66,12.9 C266.3,12.94 266.94,13 267.58,13.08 C267.82,13.08 268.06,13.04 268.3,12.96 L268.3,12.96 L269.26,12.96 C269.66,13.04 270.08,13.12 270.52,13.2 C270.96,13.28 271.42,13.32 271.9,13.32 C272.14,13.4 272.42,13.48 272.74,13.56 C273.06,13.64 273.38,13.68 273.7,13.68 L273.7,13.68 L275.26,14.16 C275.58,14.4 276.26,14.52 277.3,14.52 C278.18,14.92 278.98,15.16 279.7,15.24 C280.18,15.48 280.66,15.68 281.14,15.84 C281.62,16 282.18,16.16 282.82,16.32 C282.9,16.32 282.98,16.36 283.06,16.44 C283.54,16.68 284.02,16.9 284.5,17.1 C284.98,17.3 285.54,17.48 286.18,17.64 C286.5,17.72 286.82,18 287.14,18.48 C287.22,18.8 287.54,19.04 288.1,19.2 C288.42,19.2 288.62,19.24 288.7,19.32 C288.78,19.4 288.9,19.36 289.06,19.2 C289.14,18.88 289.18,18.68 289.18,18.6 C289.34,17.88 289.3,17.36 289.06,17.04 C288.82,16.48 288.46,16.04 287.98,15.72 L287.98,15.72 L286.3,14.64 C285.58,14.32 284.92,14.02 284.32,13.74 C283.72,13.46 283.14,13.24 282.58,13.08 L282.58,13.08 L278.02,11.52 C277.86,11.52 277.74,11.48 277.66,11.4 C277.42,11.4 277.2,11.38 277,11.34 C276.8,11.3 276.58,11.24 276.34,11.16 C276.26,11.08 275.82,10.96 275.02,10.8 C274.38,10.64 274.06,10.56 274.06,10.56 C273.66,10.48 273.24,10.4 272.8,10.32 C272.36,10.24 271.94,10.12 271.54,9.96 C270.82,9.8 270.12,9.72 269.44,9.72 L269.44,9.72 L267.22,9.72 C266.66,9.8 266.08,9.8 265.48,9.72 C264.88,9.64 264.3,9.6 263.74,9.6 C262.54,9.52 261.22,9.6 259.78,9.84 C259.14,9.92 258.6,9.98 258.16,10.02 C257.72,10.06 257.34,10.04 257.02,9.96 L257.02,9.96 L256.54,9.96 C256.14,10.12 255.62,10.22 254.98,10.26 C254.34,10.3 253.62,10.36 252.82,10.44 C252.58,10.6 252.38,10.7 252.22,10.74 C252.06,10.78 251.9,10.84 251.74,10.92 L251.74,10.92 L251.26,10.92 C251.18,10.92 251.14,10.88 251.14,10.8 L251.14,10.8 L251.14,10.56 C251.14,10.08 251.18,9.58 251.26,9.06 C251.34,8.54 251.42,8 251.5,7.44 C251.5,6.48 251.34,5.68 251.02,5.04 C250.62,4.72 250.26,4.48 249.94,4.32 L249.94,4.32 L249.22,4.32 C248.82,4.48 248.46,4.4 248.14,4.08 C247.98,4.08 247.9,4.12 247.9,4.2 C247.82,5.08 247.5,6.04 246.94,7.08 L246.94,7.08 L245.62,12.12 C245.46,12.68 245.22,13 244.9,13.08 L243.1,13.68 C242.14,13.92 241.24,14.22 240.4,14.58 C239.56,14.94 238.7,15.28 237.82,15.6 C237.58,15.84 237.3,16.02 236.98,16.14 C236.66,16.26 236.38,16.4 236.14,16.56 C235.42,16.88 234.82,17.18 234.34,17.46 C233.86,17.74 233.46,17.96 233.14,18.12 C232.1,18.68 231.5,19 231.34,19.08 C231.02,19.24 230.54,19.56 229.9,20.04 C229.66,20.28 229.3,20.48 228.82,20.64 L228.82,20.64 L227.02,21.72 L226.42,22.2 C226.02,23.4 225.82,24.12 225.82,24.36 L225.82,24.36 L225.82,25.08 C225.74,25.16 225.82,25.4 226.06,25.8 C226.3,26.28 226.54,26.44 226.78,26.28 C228.14,25.64 228.86,25.24 228.94,25.08 C229.02,25 229.14,24.9 229.3,24.78 C229.46,24.66 229.58,24.52 229.66,24.36 C229.74,24.36 230.02,24.28 230.5,24.12 L230.5,24.12 L235.06,21.12 C235.22,20.96 235.34,20.76 235.42,20.52 L235.42,20.52 L236.86,19.56 C237.26,19.4 237.68,19.2 238.12,18.96 C238.56,18.72 239.06,18.52 239.62,18.36 C239.94,18.36 240.26,18.28 240.58,18.12 C240.9,17.96 241.26,17.84 241.66,17.76 C241.9,17.76 242.18,17.72 242.5,17.64 L242.5,17.64 L243.46,17.4 C243.54,17.32 243.66,17.28 243.82,17.28 C243.9,17.28 244.02,17.4 244.18,17.64 L244.18,17.64 L244.18,18 C244.02,18.8 243.94,19.4 243.94,19.8 C243.38,21.48 243.06,23.04 242.98,24.48 L242.98,24.48 L242.02,28.68 L240.1,37.92 C239.62,40.4 239.26,42.4 239.02,43.92 C238.78,45.44 238.62,46.48 238.54,47.04 C238.62,47.28 238.66,47.52 238.66,47.76 C238.58,48.08 238.5,48.44 238.42,48.84 C238.34,49.24 238.26,49.72 238.18,50.28 C238.1,50.84 238.04,51.42 238,52.02 C237.96,52.62 237.86,53.16 237.7,53.64 C237.7,54.92 237.58,55.84 237.34,56.4 C237.26,56.88 237.24,57.38 237.28,57.9 C237.32,58.42 237.3,58.92 237.22,59.4 C237.14,59.72 237.12,60 237.16,60.24 C237.2,60.48 237.22,60.68 237.22,60.84 C237.14,61.16 237.1,61.42 237.1,61.62 L237.1,61.62 L237.1,62.16 C237.02,63.04 236.98,63.76 236.98,64.32 L236.98,64.32 L236.98,65.52 C237.06,66.24 237.1,66.86 237.1,67.38 L237.1,67.38 L237.1,68.76 C237.1,70.12 237.22,71.4 237.46,72.6 C237.54,73.16 237.62,73.84 237.7,74.64 C237.78,75.44 237.9,76.4 238.06,77.52 C238.14,78.64 238.46,80.08 239.02,81.84 C239.5,82.96 239.9,84.1 240.22,85.26 C240.54,86.42 241.02,87.52 241.66,88.56 C241.82,88.96 241.98,89.34 242.14,89.7 C242.3,90.06 242.5,90.4 242.74,90.72 C242.82,91.12 243.1,91.56 243.58,92.04 C244.06,92.36 244.46,92.72 244.78,93.12 C244.78,93.28 244.9,93.48 245.14,93.72 C245.78,94.04 246.34,94.44 246.82,94.92 C247.78,95.64 248.38,95.96 248.62,95.88 C248.78,96.04 249,96.2 249.28,96.36 C249.56,96.52 249.82,96.68 250.06,96.84 C250.3,96.92 250.58,97.12 250.9,97.44 C252.18,98.16 253.22,98.56 254.02,98.64 C254.34,98.72 254.62,98.76 254.86,98.76 C255.26,98.84 255.7,98.88 256.18,98.88 Z M240.34,16.44 L239.74,16.44 C239.66,16.44 239.62,16.36 239.62,16.2 L239.62,16.2 L239.62,16.08 C240.18,15.76 240.68,15.5 241.12,15.3 C241.56,15.1 241.94,14.96 242.26,14.88 C242.34,14.88 242.5,14.84 242.74,14.76 C242.9,14.68 243.1,14.6 243.34,14.52 C243.58,14.44 243.9,14.32 244.3,14.16 C244.62,14.08 244.9,14.08 245.14,14.16 L245.14,14.16 L245.14,14.28 C245.14,14.84 244.94,15.12 244.54,15.12 C243.9,15.52 243.34,15.72 242.86,15.72 C242.78,15.72 242.74,15.74 242.74,15.78 C242.74,15.82 242.7,15.84 242.62,15.84 L242.62,15.84 L242.5,15.84 C242.5,15.76 242.46,15.72 242.38,15.72 C242.14,15.72 241.98,15.68 241.9,15.6 C241.66,15.6 241.5,15.64 241.42,15.72 C241.02,16.12 240.66,16.36 240.34,16.44 L240.34,16.44 Z M234.58,18.72 C234.5,18.64 234.46,18.56 234.46,18.48 C234.46,18.4 234.5,18.36 234.58,18.36 L234.58,18.36 L237.1,16.92 L237.58,16.92 L237.58,17.28 C237.5,17.28 237.44,17.32 237.4,17.4 C237.36,17.48 237.3,17.52 237.22,17.52 L237.22,17.52 L235.3,18.48 C235.38,18.4 235.14,18.48 234.58,18.72 Z M251.62,76.2 C251.7,76.2 251.74,76.18 251.74,76.14 C251.74,76.1 251.78,76.08 251.86,76.08 C252.1,76 252.34,75.76 252.58,75.36 C252.66,75.04 252.76,74.66 252.88,74.22 C253,73.78 253.18,73.28 253.42,72.72 C253.66,72.24 253.78,71.92 253.78,71.76 C253.86,71.28 253.9,70.86 253.9,70.5 L253.9,70.5 L253.9,69.48 C253.9,68.92 253.94,68.6 254.02,68.52 C254.18,67.64 254.46,66.6 254.86,65.4 C255.42,63.72 255.7,62.68 255.7,62.28 C255.78,62.2 255.82,62.08 255.82,61.92 C256.14,61.52 256.4,61.04 256.6,60.48 C256.8,59.92 256.98,59.32 257.14,58.68 C257.14,58.6 257.18,58.48 257.26,58.32 C257.34,58.16 257.38,58 257.38,57.84 C257.54,57.2 257.62,56.92 257.62,57 L257.62,57 L258.46,54.6 L259.3,52.2 C259.46,51.56 259.66,50.98 259.9,50.46 C260.14,49.94 260.34,49.4 260.5,48.84 C260.66,48.84 260.74,48.76 260.74,48.6 C261.14,47.16 261.66,46 262.3,45.12 L262.3,45.12 L262.42,45 C262.42,44.92 262.44,44.88 262.48,44.88 C262.52,44.88 262.54,44.84 262.54,44.76 L262.54,44.76 L263.86,42.72 C264.02,42.4 264.26,42.08 264.58,41.76 C264.58,41.6 264.7,41.32 264.94,40.92 C265.34,40.76 265.54,40.6 265.54,40.44 C266.02,39.8 266.56,39.2 267.16,38.64 C267.76,38.08 268.18,37.4 268.42,36.6 C268.5,36.6 268.58,36.56 268.66,36.48 C268.74,36.4 268.8,36.36 268.84,36.36 C268.88,36.36 268.94,36.32 269.02,36.24 L269.02,36.24 L269.62,35.64 C269.86,35.4 270.06,35.18 270.22,34.98 C270.38,34.78 270.54,34.6 270.7,34.44 L270.7,34.44 L271.06,34.08 C271.54,33.92 271.98,33.88 272.38,33.96 C272.54,34.04 272.7,34.12 272.86,34.2 C273.02,34.28 273.18,34.32 273.34,34.32 C273.58,34.4 274.1,34.44 274.9,34.44 L274.9,34.44 L275.5,34.44 L276.58,33.96 C276.98,33.8 277.02,33.56 276.7,33.24 C275.34,32.36 273.82,31.92 272.14,31.92 C271.74,31.92 271.5,31.96 271.42,32.04 C271.02,32.2 270.66,32.2 270.34,32.04 C269.86,31.72 269.42,31.76 269.02,32.16 C269.004,32.176 268.9896,32.1904 268.9768,32.2032 L268.9,32.28 C267.3,33.56 265.9,34.92 264.7,36.36 C264.46,36.76 264.34,36.96 264.34,36.96 C263.54,37.92 263.1,38.56 263.02,38.88 C262.78,39.28 262.6,39.54 262.48,39.66 C262.36,39.78 262.26,40 262.18,40.32 C261.54,41.36 261.22,41.92 261.22,42 C261.06,42.08 260.94,42.16 260.86,42.24 L260.86,42.24 L260.74,42.36 C259.86,43.56 259.26,44.56 258.94,45.36 C258.54,45.92 258.16,46.46 257.8,46.98 C257.44,47.5 257.06,48.04 256.66,48.6 C256.5,49.24 256.42,49.6 256.42,49.68 C256.42,50.24 256.26,50.56 255.94,50.64 C256.1,50.56 256.02,50.96 255.7,51.84 L255.7,51.84 L255.58,52.08 C255.5,52.08 255.46,52.04 255.46,51.96 L255.46,51.96 L255.46,51.84 C255.46,51.6 255.26,51.28 254.86,50.88 L254.86,50.88 L254.86,50.4 C254.86,50.304 254.8744,50.2224 254.9032,50.1552 L254.92,50.124 C254.923457,50.1015802 254.935556,50.0577778 254.956296,49.9925926 L254.98,49.92 C255.06,49.68 255.22,49.24 255.46,48.6 C255.46,48.28 255.6,48.04 255.88,47.88 C256.16,47.72 256.3,47.44 256.3,47.04 C256.54,46.32 256.66,45.48 256.66,44.52 C256.66,44.36 256.68,44.16 256.72,43.92 C256.76,43.68 256.78,43.44 256.78,43.2 C256.86,42.88 256.94,42.6 257.02,42.36 C257.1,42.12 257.18,41.92 257.26,41.76 C257.34,41.52 257.38,41.36 257.38,41.28 C257.38,40.56 257.52,39.8 257.8,39 C258.08,38.2 258.22,37.32 258.22,36.36 L258.22,36.36 L258.22,36.24 C258.22,36.16 258.24,36.12 258.28,36.12 C258.32,36.12 258.34,36.08 258.34,36 L258.34,36 L258.34,35.88 C258.34,35.8 258.36,35.72 258.4,35.64 C258.44,35.56 258.46,35.44 258.46,35.28 C258.46,34.64 258.44,33.98 258.4,33.3 C258.36,32.62 258.34,31.96 258.34,31.32 C258.18,30.92 257.86,30.64 257.38,30.48 L257.38,30.48 L255.22,30.48 C254.9,30.48 254.74,30.68 254.74,31.08 C254.34,32.84 254.14,33.68 254.14,33.6 C254.14,34.64 254.04,35.62 253.84,36.54 C253.64,37.46 253.5,38.44 253.42,39.48 L253.42,39.48 L253.42,39.84 C253.26,40.48 253.08,41.28 252.88,42.24 C252.68,43.2 252.46,44.36 252.22,45.72 C251.98,46.52 251.82,47.26 251.74,47.94 C251.66,48.62 251.54,49.32 251.38,50.04 C251.22,50.68 251.06,51.42 250.9,52.26 C250.74,53.1 250.58,54.08 250.42,55.2 C250.42,55.84 250.36,56.5 250.24,57.18 C250.12,57.86 250.06,58.6 250.06,59.4 C249.98,59.48 249.94,59.6 249.94,59.76 L249.94,59.76 L249.22,63.72 C249.06,65.88 248.82,67.36 248.5,68.16 C248.5,68.88 248.48,69.58 248.44,70.26 C248.4,70.94 248.34,71.6 248.26,72.24 C248.26,72.56 248.28,72.92 248.32,73.32 C248.36,73.72 248.42,74.2 248.5,74.76 L248.5,74.76 L248.98,75.24 C249.46,75.24 249.78,75.48 249.94,75.96 C249.94,76.12 250.02,76.2 250.18,76.2 L250.18,76.2 L251.62,76.2 Z M267.772,34.852 L267.7528,34.8048 C267.7016,34.6256 267.804,34.344 268.06,33.96 L268.06,33.96 L268.66,33.48 L269.02,33.24 L269.02,33.48 C269.02,33.72 269,33.88 268.96,33.96 C268.92,34.04 268.9,34.16 268.9,34.32 C268.58,34.64 268.34,34.8 268.18,34.8 L268.18,34.8 L267.82,34.8 L267.82,34.8 L267.772,34.852 Z M266.74,36.36 C266.1,37.32 265.74,37.6 265.66,37.2 C265.58,36.8 266.06,36.12 267.1,35.16 C267.26,34.92 267.5,34.84 267.82,34.92 L267.727,34.902 L267.6664,34.9824 C267.628,35.04 267.6024,35.0944 267.5896,35.1456 L267.58,35.22 C267.58,35.34 267.54,35.44 267.46,35.52 C267.38,35.6 267.34,35.68 267.34,35.76 C267.26,35.92 267.14,36.08 266.98,36.24 C266.9,36.32 266.82,36.36 266.74,36.36 Z M254.02,60.6 L253.9,60.48 C253.9,59.76 254.06,59.12 254.38,58.56 C254.62,57.76 254.74,57.28 254.74,57.12 C254.9,56.48 255.14,55.92 255.46,55.44 C255.86,54.24 256.14,53.48 256.3,53.16 L256.3,53.16 L256.66,51.72 C256.74,51.56 256.82,51.42 256.9,51.3 C256.98,51.18 257.06,51.04 257.14,50.88 C257.22,50.8 257.26,50.72 257.26,50.64 C257.9,48.64 258.52,47.5 259.12,47.22 C259.72,46.94 259.86,47.12 259.54,47.76 L259.54,47.76 L259.18,48.48 C258.7,49.36 258.26,50.28 257.86,51.24 C257.46,52.2 257.06,53.16 256.66,54.12 C256.42,54.84 256.18,55.48 255.94,56.04 C255.7,56.6 255.46,57.16 255.22,57.72 L255.22,57.72 L254.14,60.48 C254.06,60.56 254.02,60.6 254.02,60.6 L254.02,60.6 Z M280.18,36.96 C280.74,36.88 281.02,36.68 281.02,36.36 C281.1,36.12 281.22,35.76 281.38,35.28 C281.54,34.8 281.82,34.24 282.22,33.6 C282.86,32.16 282.86,30.76 282.22,29.4 C281.98,29.16 281.74,29 281.5,28.92 C281.18,28.92 280.94,28.84 280.78,28.68 C279.98,28.52 279.26,28.48 278.62,28.56 C278.14,28.56 277.9,28.68 277.9,28.92 C277.9,29.72 277.74,30.6 277.42,31.56 C277.26,32.2 277.18,32.48 277.18,32.4 C276.78,33.28 276.54,34 276.46,34.56 C276.38,35.12 276.58,35.52 277.06,35.76 C278.02,36.16 278.62,36.48 278.86,36.72 C279.18,36.88 279.62,36.96 280.18,36.96 Z M276.937551,75.91 L277.18,75.9 C277.74,75.86 278.3,75.78 278.86,75.66 C279.42,75.54 280.06,75.4 280.78,75.24 C281.5,74.84 282.06,74.44 282.46,74.04 C282.94,73.64 283.38,73.22 283.78,72.78 C284.18,72.34 284.62,71.88 285.1,71.4 L285.1,71.4 L288.58,67.92 L289.06,67.44 C289.78,66.48 290.56,65.54 291.4,64.62 C292.24,63.7 293.06,62.72 293.86,61.68 L293.86,61.68 L294.46,60.96 C295.18,60.24 295.86,59.44 296.5,58.56 L296.5,58.56 L296.98,57.96 C297.46,57.48 297.92,56.94 298.36,56.34 C298.8,55.74 299.26,55.16 299.74,54.6 C300.54,53.4 301.1,52.32 301.42,51.36 C301.58,51.12 301.5,50.92 301.18,50.76 L301.18,50.76 L300.82,50.76 C300.34,50.36 299.66,50.92 298.78,52.44 C297.98,53.8 297.14,54.8 296.26,55.44 C295.22,56.72 294.2,57.96 293.2,59.16 C292.2,60.36 291.14,61.52 290.02,62.64 C289.38,63.28 288.7,63.94 287.98,64.62 C287.26,65.3 286.66,65.96 286.18,66.6 L286.18,66.6 L281.74,71.16 C281.5,71.48 281.1,71.72 280.54,71.88 C279.98,72.04 279.54,72.16 279.22,72.24 C278.26,72.48 277.5,72.6 276.94,72.6 C276.46,72.6 275.74,71.28 274.78,68.64 C274.54,67.52 274.5,66.12 274.66,64.44 C274.82,62.76 275.02,61.32 275.26,60.12 C275.26,59.88 275.32,59.66 275.44,59.46 C275.56,59.26 275.66,59.04 275.74,58.8 L275.74,58.8 L275.98,57.6 C276.06,57.2 276.18,56.76 276.34,56.28 C276.34,56.12 276.38,55.96 276.46,55.8 C276.54,55.64 276.62,55.44 276.7,55.2 C277.1,54.48 277.34,53.74 277.42,52.98 C277.5,52.22 277.7,51.48 278.02,50.76 C278.66,49.08 279.18,47 279.58,44.52 C279.58,44.12 279.6,43.72 279.64,43.32 C279.68,42.92 279.78,42.48 279.94,42 C279.94,41.52 279.86,41.12 279.7,40.8 C279.7,40.88 279.62,40.68 279.46,40.2 L279.46,40.2 L279.22,39.72 C279.14,39.56 279.02,39.4 278.86,39.24 C277.9,38.6 277.18,38.32 276.7,38.4 L276.7,38.4 L275.62,38.4 C275.14,38.4 274.9,38.64 274.9,39.12 C274.74,39.68 274.58,40.68 274.42,42.12 C274.26,42.6 274.18,42.84 274.18,42.84 L274.18,42.84 L273.22,46.32 C272.98,47.52 272.62,48.72 272.14,49.92 C271.98,50.32 271.86,50.68 271.78,51 C271.7,51.32 271.62,51.64 271.54,51.96 C271.14,53 270.9,53.92 270.82,54.72 C270.66,55.76 270.48,56.78 270.28,57.78 C270.08,58.78 269.98,59.8 269.98,60.84 C269.98,61.16 269.9,61.4 269.74,61.56 C269.66,61.88 269.62,62.56 269.62,63.6 L269.62,64.8 C269.62,67.44 270.14,69.68 271.18,71.52 C271.58,72.4 272.26,73.36 273.22,74.4 C274.02,75.04 274.74,75.46 275.38,75.66 C276.02,75.86 276.62,75.94 277.18,75.9 L276.937551,75.91 Z M294.22,60.48 L294.1,60.48 L294.1,60 C294.18,59.68 294.42,59.32 294.82,58.92 C295.3,58.52 295.72,58.04 296.08,57.48 C296.44,56.92 296.86,56.36 297.34,55.8 L297.34,55.8 L298.54,54.12 L298.78,54.12 L298.78,54.72 C298.7,55.04 298.14,55.92 297.1,57.36 L297.1,57.36 L295.66,59.16 C295.26,59.72 294.78,60.16 294.22,60.48 L294.22,60.48 Z M292.54,62.4 C292.46,62.32 292.42,62.24 292.42,62.16 C292.42,62.08 292.46,62.04 292.54,62.04 C292.62,61.96 292.7,61.92 292.78,61.92 L292.78,61.92 L292.7752,62.0112 C292.7656,62.0976 292.7416,62.1696 292.7032,62.2272 L292.66,62.28 L292.54,62.4 Z M285.251837,70.1583673 C285.310612,70.0604082 285.34,69.8742857 285.34,69.6 C285.82,68.96 286.28,68.42 286.72,67.98 C287.16,67.54 287.58,67.16 287.98,66.84 L287.98,66.84 L288.34,66.84 C288.66,66.84 288.66,67 288.34,67.32 C288.26,67.4 288.22,67.48 288.22,67.56 C288.22,67.64 288.18,67.68 288.1,67.68 C287.78,67.92 287.42,68.24 287.02,68.64 C286.62,69.04 286.14,69.52 285.58,70.08 C285.5,70.16 285.38,70.2 285.22,70.2 L285.22,70.2 L285.251837,70.1583673 Z M298.06,71.64 C298.3,71.96 298.62,71.92 299.02,71.52 C299.5,70.72 299.74,70.08 299.74,69.6 C299.74,68.16 299.98,66.76 300.46,65.4 L300.46,65.4 L300.82,63.72 L301.18,61.8 C301.42,61.08 301.54,60.44 301.54,59.88 C301.62,59.24 301.68,58.84 301.72,58.68 C301.76,58.52 301.74,58.52 301.66,58.68 C301.58,58.84 301.56,58.82 301.6,58.62 C301.64,58.42 301.74,58 301.9,57.36 L301.9,57.36 L302.02,57.12 L302.14,57.24 C302.22,58.12 302.38,58.96 302.62,59.76 C302.86,60.56 303.1,61.32 303.34,62.04 C303.34,62.04 303.42,62.28 303.58,62.76 C303.9,63.24 304.16,63.72 304.36,64.2 C304.56,64.68 304.78,65.16 305.02,65.64 C305.34,66.6 305.86,67.52 306.58,68.4 L306.58,68.4 L307.18,69.12 C307.66,69.44 308.16,69.78 308.68,70.14 C309.2,70.5 309.78,70.72 310.42,70.8 C310.58,70.88 310.72,70.96 310.84,71.04 C310.96,71.12 311.14,71.16 311.38,71.16 C311.54,71.4 311.94,71.44 312.58,71.28 L312.58,71.28 L315.7,70.56 C316.82,70.32 318.02,69.68 319.3,68.64 C320.18,67.76 320.7,67.28 320.86,67.2 C321.58,66.8 322.62,65.92 323.98,64.56 C324.06,64.4 324.18,64.24 324.34,64.08 C324.5,63.92 324.66,63.72 324.82,63.48 C325.14,62.92 325.82,62.12 326.86,61.08 C327.82,60.36 328.66,59.52 329.38,58.56 C329.7,58.08 330.08,57.6 330.52,57.12 C330.96,56.64 331.3,56.08 331.54,55.44 C331.54,55.36 331.6,55.28 331.72,55.2 C331.84,55.12 331.94,55 332.02,54.84 L332.02,54.84 L333.34,53.04 C333.42,52.8 333.42,52.56 333.34,52.32 C333.34,52 333.14,51.76 332.74,51.6 C332.5,51.6 332.3,51.56 332.14,51.48 C331.98,51.4 331.82,51.32 331.66,51.24 C331.42,51.16 331.26,51.16 331.18,51.24 L331.18,51.24 L330.82,51.6 C330.34,51.92 329.9,52.44 329.5,53.16 C329.34,53.48 329.2,53.74 329.08,53.94 C328.96,54.14 328.82,54.32 328.66,54.48 C327.78,55.6 326.96,56.58 326.2,57.42 C325.44,58.26 324.74,59 324.1,59.64 L324.1,59.64 L323.5,60.24 C322.94,60.88 322.38,61.5 321.82,62.1 C321.26,62.7 320.74,63.28 320.26,63.84 C320.26,64.24 319.94,64.56 319.3,64.8 C318.66,65.28 318.06,65.7 317.5,66.06 C316.94,66.42 316.38,66.8 315.82,67.2 C314.78,67.84 313.82,68.16 312.94,68.16 C312.62,68.16 312.24,68.18 311.8,68.22 C311.36,68.26 310.82,68.32 310.18,68.4 C309.54,68.4 309.02,68.08 308.62,67.44 L308.62,67.44 L308.26,66.72 C308.26,66.96 308.02,66.4 307.54,65.04 C307.14,64.48 306.9,63.76 306.82,62.88 C306.74,62.64 306.64,62.36 306.52,62.04 C306.4,61.72 306.34,61.4 306.34,61.08 C306.1,60.36 305.92,59.6 305.8,58.8 C305.68,58 305.54,57.2 305.38,56.4 C305.38,55.52 305.26,54.72 305.02,54 C304.86,53.84 304.86,53.64 305.02,53.4 C305.1,53.4 305.16,53.38 305.2,53.34 C305.24,53.3 305.3,53.28 305.38,53.28 C305.46,53.28 305.5,53.24 305.5,53.16 C305.82,52.84 306.2,52.52 306.64,52.2 C307.08,51.88 307.42,51.48 307.66,51 C307.74,51 307.82,50.96 307.9,50.88 L307.9,50.88 L308.14,50.64 L308.86,50.04 C309.26,49.72 309.64,49.38 310,49.02 C310.36,48.66 310.78,48.28 311.26,47.88 C311.66,47.56 312.1,47.22 312.58,46.86 C313.06,46.5 313.54,46.08 314.02,45.6 C314.34,45.44 314.54,45.24 314.62,45 C315.18,44.44 315.82,43.92 316.54,43.44 L316.54,43.44 L317.62,42.48 C318.42,41.6 319.18,40.88 319.9,40.32 C320.46,39.84 321.02,39.32 321.58,38.76 C322.14,38.2 322.74,37.68 323.38,37.2 C323.62,37.04 323.88,36.88 324.16,36.72 C324.44,36.56 324.7,36.36 324.94,36.12 C325.34,35.88 325.66,35.52 325.9,35.04 L325.9,35.04 L325.9,34.92 C325.9,34.84 325.92,34.78 325.96,34.74 C326,34.7 326.02,34.6 326.02,34.44 C326.02,34.44 325.94,34.12 325.78,33.48 C325.78,33.32 325.7,33.24 325.54,33.24 C325.46,33.24 325.02,33.08 324.22,32.76 L324.22,32.76 L323.86,32.76 C323.7,32.84 323.58,32.94 323.5,33.06 C323.42,33.18 323.34,33.24 323.26,33.24 C322.62,33.8 322,34.38 321.4,34.98 C320.8,35.58 320.22,36.12 319.66,36.6 C319.02,37.16 318.46,37.74 317.98,38.34 C317.5,38.94 316.9,39.44 316.18,39.84 L316.18,39.84 L315.82,40.2 L315.1,40.8 C314.38,41.36 313.7,41.92 313.06,42.48 C312.42,43.04 311.78,43.56 311.14,44.04 L311.14,44.04 L310.9,44.28 C310.82,44.36 310.74,44.4 310.66,44.4 C310.34,44.64 310.02,44.86 309.7,45.06 C309.38,45.26 309.1,45.48 308.86,45.72 C308.46,45.96 308.02,46.28 307.54,46.68 C307.06,47.08 306.5,47.56 305.86,48.12 C305.46,48.36 305.1,48.62 304.78,48.9 C304.46,49.18 304.14,49.44 303.82,49.68 C303.74,49.76 303.58,49.8 303.34,49.8 C303.18,49.8 303.1,49.6 303.1,49.2 C303.26,48.16 303.4,47.08 303.52,45.96 C303.64,44.84 303.86,43.76 304.18,42.72 L304.18,42.72 L304.18,42.36 C304.26,41.48 304.38,40.62 304.54,39.78 C304.7,38.94 304.9,38.04 305.14,37.08 C305.3,36.04 305.48,34.96 305.68,33.84 C305.88,32.72 306.1,31.6 306.34,30.48 C306.42,29.84 306.5,29.34 306.58,28.98 C306.66,28.62 306.74,28.36 306.82,28.2 C306.98,28.04 307.06,27.72 307.06,27.24 C307.06,27.08 307.1,26.92 307.18,26.76 C307.26,26.6 307.34,26.4 307.42,26.16 L307.42,26.16 L307.78,24.96 C308.1,23.84 308.42,22.7 308.74,21.54 C309.06,20.38 309.42,19.2 309.82,18 C310.14,16.72 310.26,15.32 310.18,13.8 L310.18,13.8 L310.18,11.52 C310.34,10.88 310.14,10.36 309.58,9.96 L309.58,9.96 L308.26,8.64 C308.18,8.56 308.02,8.52 307.78,8.52 C307.38,8.68 306.86,8.56 306.22,8.16 C305.82,7.76 305.62,7.84 305.62,8.4 C305.62,8.4 305.54,8.68 305.38,9.24 C305.22,10.36 305.06,11.32 304.9,12.12 C304.74,12.92 304.58,13.56 304.42,14.04 L304.42,14.04 L303.94,15.48 C303.78,15.96 303.7,16.44 303.7,16.92 C303.7,17 303.62,17.36 303.46,18 L303.46,18 L302.02,22.8 C302.02,22.96 302,23.1 301.96,23.22 C301.92,23.34 301.9,23.48 301.9,23.64 C301.82,24.2 301.7,24.74 301.54,25.26 C301.38,25.78 301.26,26.28 301.18,26.76 C301.02,27.48 300.86,28.22 300.7,28.98 C300.54,29.74 300.42,30.48 300.34,31.2 C300.1,32.32 299.98,32.88 299.98,32.88 C299.82,33.44 299.7,34 299.62,34.56 C299.54,35.12 299.46,35.64 299.38,36.12 C299.3,36.84 299.22,37.46 299.14,37.98 C299.06,38.5 298.98,38.96 298.9,39.36 C298.82,39.68 298.74,40.06 298.66,40.5 C298.58,40.94 298.5,41.48 298.42,42.12 C298.26,42.84 298.14,43.52 298.06,44.16 C297.98,44.8 297.9,45.4 297.82,45.96 C297.74,46.2 297.66,46.54 297.58,46.98 C297.5,47.42 297.42,47.96 297.34,48.6 C297.18,49.48 297.06,50.34 296.98,51.18 C296.9,52.02 296.82,52.8 296.74,53.52 C296.74,54 296.78,54.32 296.86,54.48 C296.94,54.72 296.96,55.02 296.92,55.38 C296.88,55.74 296.82,56.16 296.74,56.64 C296.66,56.88 296.58,57.18 296.5,57.54 C296.42,57.9 296.34,58.32 296.26,58.8 C296.26,59.6 296.38,59.52 296.62,58.56 L296.6,58.635 L296.58625,58.8075 L296.58625,58.8075 L296.56,59.04 C296.52,59.36 296.46,59.72 296.38,60.12 C296.14,61 295.9,62.4 295.66,64.32 C295.58,64.48 295.54,64.8 295.54,65.28 C295.46,65.68 295.4,66.04 295.36,66.36 C295.32,66.68 295.3,66.96 295.3,67.2 C295.22,67.68 295.38,68.12 295.78,68.52 L295.78,68.52 L296.14,68.88 C296.22,68.96 296.26,69.2 296.26,69.6 C296.42,70.08 296.62,70.4 296.86,70.56 C296.94,70.72 297.34,71.08 298.06,71.64 Z M340.9,70.8 C341.14,70.88 341.42,70.88 341.74,70.8 C341.74,70.8 342.06,70.72 342.7,70.56 C343.9,70 344.98,69.68 345.94,69.6 C346.18,69.6 346.34,69.56 346.42,69.48 C346.82,69.4 347.14,69.32 347.38,69.24 C347.62,69.16 347.82,69.08 347.98,69 C349.66,68.36 350.78,67.84 351.34,67.44 C352.38,66.64 353.5,66 354.7,65.52 C354.78,65.44 354.86,65.4 354.94,65.4 C355.02,65.4 355.1,65.36 355.18,65.28 C355.58,64.96 356.02,64.62 356.5,64.26 C356.98,63.9 357.46,63.56 357.94,63.24 C358.26,63 358.5,62.76 358.66,62.52 C358.9,62.2 359.24,61.82 359.68,61.38 C360.12,60.94 360.66,60.44 361.3,59.88 L361.3,59.88 L361.9,59.16 C362.3,58.44 362.64,57.82 362.92,57.3 C363.2,56.78 363.42,56.32 363.58,55.92 C363.74,55.52 363.92,55.12 364.12,54.72 C364.32,54.32 364.54,53.96 364.78,53.64 C364.94,53.08 365.18,52.56 365.5,52.08 C365.66,51.6 365.74,51.32 365.74,51.24 C365.74,51 365.62,50.88 365.38,50.88 C364.5,50.88 363.94,51.12 363.7,51.6 L363.7,51.6 L363.22,52.2 L361.42,54.24 C361.34,54.48 361.1,54.68 360.7,54.84 C360.14,55.16 359.34,55.92 358.3,57.12 L358.3,57.12 L356.62,58.68 C356.3,58.84 355.96,59.1 355.6,59.46 C355.528,59.532 355.4536,59.6064 355.3768,59.6832 L354.34,60.72 C354.1,61.04 353.78,61.36 353.38,61.68 C352.98,62 352.5,62.36 351.94,62.76 C350.98,63.4 350.02,63.94 349.06,64.38 C348.1,64.82 347.18,65.32 346.3,65.88 C346.14,65.96 345.96,66.04 345.76,66.12 C345.56,66.2 345.26,66.28 344.86,66.36 L344.86,66.36 L343.06,67.08 L341.62,67.08 C341.22,67.24 340.98,67.24 340.9,67.08 C340.5,66.92 339.98,66.92 339.34,67.08 C337.74,67.48 336.3,67.24 335.02,66.36 C334.06,65.64 333.62,65.32 333.7,65.4 C333.38,65.08 333.22,64.84 333.22,64.68 C332.58,63 332.54,61.28 333.1,59.52 C333.18,59.04 333.32,58.5 333.52,57.9 C333.72,57.3 333.98,56.6 334.3,55.8 C334.7,55.08 335.1,54.44 335.5,53.88 C335.66,53.64 335.9,53.56 336.22,53.64 L336.22,53.64 L336.58,53.64 C339.46,54.2 341.9,53.84 343.9,52.56 L343.9,52.56 L345.94,51.12 L347.02,50.28 C348.22,49.4 349.22,48.44 350.02,47.4 C350.66,46.76 350.94,45.88 350.86,44.76 L350.86,44.76 L350.86,43.68 C350.86,43.28 350.84,42.9 350.8,42.54 C350.76,42.18 350.74,41.8 350.74,41.4 C350.58,40.68 350.34,40.04 350.02,39.48 C349.78,38.92 349.3,38.44 348.58,38.04 C347.3,37.56 346.18,37.36 345.22,37.44 C344.18,37.52 343.3,37.64 342.58,37.8 C341.86,37.96 341.26,38.12 340.78,38.28 C340.3,38.44 340.1,38.52 340.18,38.52 C338.18,39.08 336.7,39.96 335.74,41.16 L335.74,41.16 L334.78,42.12 C334.46,42.44 334.12,42.86 333.76,43.38 C333.4,43.9 332.98,44.52 332.5,45.24 C331.38,46.6 330.3,48.52 329.26,51 C329.02,51.64 328.84,52.2 328.72,52.68 C328.6,53.16 328.5,53.52 328.42,53.76 C328.1,55.68 327.98,57.28 328.06,58.56 C328.14,60 328.46,61.72 329.02,63.72 C329.1,64.36 329.38,65 329.86,65.64 L329.86,65.64 L330.34,66.12 C330.9,66.52 331.38,66.88 331.78,67.2 C332.18,67.52 332.5,67.8 332.74,68.04 C332.74,68.28 332.9,68.4 333.22,68.4 C333.7,68.8 334.42,69.2 335.38,69.6 C336.02,70 336.62,70.2 337.18,70.2 C337.74,70.36 338.34,70.46 338.98,70.5 C339.62,70.54 340.26,70.64 340.9,70.8 Z M338.02,50.76 C337.86,50.76 337.74,50.72 337.66,50.64 C337.26,50.64 337.22,50.48 337.54,50.16 C337.54,49.84 337.62,49.6 337.78,49.44 C338.02,49.12 338.2,48.76 338.32,48.36 C338.44,47.96 338.7,47.6 339.1,47.28 C339.02,47.36 339.14,46.92 339.46,45.96 C339.46,45.48 339.62,45.12 339.94,44.88 C340.1,44.8 340.42,44.4 340.9,43.68 C341.54,42.48 342.66,41.44 344.26,40.56 C344.26,40.56 345.06,40.32 346.66,39.84 C347.06,39.84 347.26,40 347.26,40.32 L347.26,40.32 L347.26,42.6 C347.34,44.44 346.46,46 344.62,47.28 L344.62,47.28 L341.14,49.8 C340.66,50.04 340.38,50.16 340.3,50.16 C339.82,50.32 339.4,50.44 339.04,50.52 C338.68,50.6 338.34,50.68 338.02,50.76 Z" id="ZachStrike" fill="#03A5AA" fill-rule="nonzero"></path>
    </g>
</svg>