<?xml version="1.0" encoding="UTF-8"?>
<svg width="1330px" height="159px" viewBox="0 0 1330 159" version="1.1" xmlns="http://www.w3.org/2000/svg" xmlns:xlink="http://www.w3.org/1999/xlink">
    <!-- Generator: Sketch 62 (91390) - https://sketch.com -->
    <title>arrow2</title>
    <desc>Created with Sketch.</desc>
    <g id="Page-1" stroke="none" stroke-width="1" fill="none" fill-rule="evenodd">
        <path d="M1329.93139,57.9202683 C1288.45979,57.9202683 1256.45955,44.1976636 1222.57633,29.6734553 C1188.55558,15.0821525 1153.37119,0 1108.28524,0 C1063.19929,0 1028.02195,15.0821525 993.997679,29.6734553 C960.117981,44.1976636 928.117746,57.9202683 886.646146,57.9202683 C845.171021,57.9202683 813.170785,44.1976636 779.291088,29.6734553 C745.270342,15.0821525 710.085951,0 665.003526,0 C619.917575,0 584.733184,15.0821525 550.712439,29.6734553 C516.829215,44.2011949 484.828979,57.9202683 443.360906,57.9202683 C401.889307,57.9202683 369.885546,44.1976636 336.005848,29.6734553 C301.985102,15.0821525 266.800711,0 221.718286,0 C176.632335,0 141.447945,15.0821525 107.427199,29.6734553 C73.5439746,44.1976636 41.5437395,57.9202683 0.0721401075,57.9202683 L0.0721401075,159 L1329.93139,159 L1329.93139,57.9202683 Z" id="arrow2" fill="#33DEB2"></path>
    </g>
</svg>