<?xml version="1.0" encoding="UTF-8"?>
<svg width="1440px" height="159px" viewBox="0 0 1440 159" version="1.1" xmlns="http://www.w3.org/2000/svg" xmlns:xlink="http://www.w3.org/1999/xlink">
    <!-- Generator: Sketch 62 (91390) - https://sketch.com -->
    <title>Fill 1</title>
    <desc>Created with Sketch.</desc>
    <g id="Page-1" stroke="none" stroke-width="1" fill="none" fill-rule="evenodd">
        <path d="M1439.98237,63.5491494 L1439.91185,49.6782304 C1421.01848,55.2223604 1403.03488,57.9202683 1384.93139,57.9202683 C1343.45979,57.9202683 1311.45955,44.1976636 1277.57633,29.6734553 C1243.55558,15.0821525 1208.37119,0 1163.28524,0 C1118.19929,0 1083.02195,15.0821525 1048.99768,29.6734553 C1015.11798,44.1976636 983.117746,57.9202683 941.646146,57.9202683 C900.171021,57.9202683 868.170785,44.1976636 834.291088,29.6734553 C800.270342,15.0821525 765.085951,0 720.003526,0 C674.917575,0 639.733184,15.0821525 605.712439,29.6734553 C571.829215,44.2011949 539.828979,57.9202683 498.360906,57.9202683 C456.889307,57.9202683 424.885546,44.1976636 391.005848,29.6734553 C356.985102,15.0821525 321.800711,0 276.718286,0 C231.632335,0 196.447945,15.0821525 162.427199,29.6734553 C128.543975,44.1976636 96.5437395,57.9202683 55.0721401,57.9202683 C36.96512,57.9202683 18.9815169,55.2223604 0.095207311,49.6782304 L0.0176309835,63.5491494 L0,63.5491494 L0,159 L1440,159 L1440,63.5491494 L1439.98237,63.5491494 Z" id="Fill-1" fill="#33DEB2"></path>
    </g>
</svg>