<?xml version="1.0" standalone="no"?><svg xmlns="http://www.w3.org/2000/svg" viewBox="0 0 1440 320"><path fill="#ff5500" fill-opacity="1" d="M0,192L40,202.7C80,213,160,235,240,240C320,245,400,235,480,213.3C560,192,640,160,720,144C800,128,880,128,960,154.7C1040,181,1120,235,1200,261.3C1280,288,1360,288,1400,288L1440,288L1440,320L1400,320C1360,320,1280,320,1200,320C1120,320,1040,320,960,320C880,320,800,320,720,320C640,320,560,320,480,320C400,320,320,320,240,320C160,320,80,320,40,320L0,320Z"></path></svg>