<?xml version="1.0" encoding="UTF-8"?>
<svg width="254px" height="57px" viewBox="0 0 254 57" version="1.1" xmlns="http://www.w3.org/2000/svg" xmlns:xlink="http://www.w3.org/1999/xlink">
    <!-- Generator: Sketch 63.1 (92452) - https://sketch.com -->
    <title>linkedin</title>
    <desc>Created with Sketch.</desc>
    <g id="Page-1" stroke="none" stroke-width="1" fill="none" fill-rule="evenodd">
        <g id="linkedin">
            <path d="M28.5,0 L225,0 C240.740115,-2.89141229e-15 253.5,12.7598846 253.5,28.5 C253.5,44.2401154 240.740115,57 225,57 L28.5,57 C12.7598846,57 1.92760819e-15,44.2401154 0,28.5 C-1.92760819e-15,12.7598846 12.7598846,2.89141229e-15 28.5,0 Z M28.5,5.25 C41.3406204,5.25 51.75,15.6593796 51.75,28.5 C51.75,41.3406204 41.3406204,51.75 28.5,51.75 C15.6593796,51.75 5.25,41.3406204 5.25,28.5 C5.25,15.6593796 15.6593796,5.25 28.5,5.25 Z M22.65,23 L17.925,23 L17.925,39.875 L22.65,39.875 L22.65,23 Z M36.374829,23.2871905 C33.8565305,22.5482126 31.6791539,23.2344722 29.9813895,25.3561134 C29.9458241,25.4006857 29.873354,25.4135963 29.7467173,25.4769197 L29.7467173,25.4769197 L29.7467173,23.0617162 L25.35,23.0617162 L25.35,39.875 L29.7782649,39.875 L29.7782649,38.9886262 L29.773503,37.1253434 C29.7659416,35.2619886 29.7562039,33.3985689 29.8002887,31.5364461 C29.8185922,30.7653454 29.9691871,29.9396821 30.2831746,29.2471209 C30.8081735,28.0891635 31.7865942,27.5032684 33.0629309,27.602557 C34.2955177,27.6984643 35.0715578,28.4491232 35.4359916,29.6080028 C35.6309317,30.2283261 35.7075684,30.9105896 35.7178363,31.5667245 C35.7517648,33.7174145 35.7306339,35.8690267 35.7306339,38.0203315 L35.7306339,38.0203315 L35.7306339,39.8642412 L40.1630654,39.8642412 L40.1683952,38.2455347 C40.1876918,35.0131728 40.246675,31.809896 40.1269048,28.6137332 C40.0322621,26.0866379 38.9124727,24.0318552 36.374829,23.2871905 Z M19.9421545,16.25 C18.4549424,16.2546274 17.2459709,17.4745536 17.25,18.966771 C17.2540493,20.4756029 18.4422033,21.6532239 19.9573792,21.65 C21.4714677,21.646609 22.6540289,20.4614499 22.65,18.951695 C22.6459505,17.4599391 21.4287451,16.245551 19.9421545,16.25 Z" id="Combined-Shape" fill="#33DEB2"></path>
            <path d="M75.216,35.216 C77.484,35.216 79.23,34.298 80.526,32.876 L80.526,28.106 L74.73,28.106 L74.73,30.824 L77.43,30.824 L77.43,31.76 C76.998,32.12 76.098,32.48 75.216,32.48 C73.254,32.48 71.868,30.968 71.868,29.006 C71.868,27.044 73.254,25.532 75.216,25.532 C76.386,25.532 77.304,26.27 77.754,27.062 L80.346,25.712 C79.518,24.218 77.898,22.796 75.216,22.796 C71.634,22.796 68.718,25.19 68.718,29.006 C68.718,32.822 71.634,35.216 75.216,35.216 Z M88.908,35.216 C92.58,35.216 95.316,32.66 95.316,29.006 C95.316,25.352 92.58,22.796 88.908,22.796 C85.236,22.796 82.482,25.352 82.482,29.006 C82.482,32.66 85.236,35.216 88.908,35.216 Z M88.908,32.48 C86.91,32.48 85.632,30.95 85.632,29.006 C85.632,27.044 86.91,25.532 88.908,25.532 C90.888,25.532 92.166,27.044 92.166,29.006 C92.166,30.95 90.888,32.48 88.908,32.48 Z M108.768,35 L108.768,25.694 L112.116,25.694 L112.116,22.994 L102.306,22.994 L102.306,25.694 L105.672,25.694 L105.672,35 L108.768,35 Z M119.76,35.216 C123.432,35.216 126.168,32.66 126.168,29.006 C126.168,25.352 123.432,22.796 119.76,22.796 C116.088,22.796 113.334,25.352 113.334,29.006 C113.334,32.66 116.088,35.216 119.76,35.216 Z M119.76,32.48 C117.762,32.48 116.484,30.95 116.484,29.006 C116.484,27.044 117.762,25.532 119.76,25.532 C121.74,25.532 123.018,27.044 123.018,29.006 C123.018,30.95 121.74,32.48 119.76,32.48 Z M141.762,35 L141.762,32.3 L136.938,32.3 L136.938,22.994 L133.842,22.994 L133.842,35 L141.762,35 Z M147.21,35 L147.21,22.994 L144.114,22.994 L144.114,35 L147.21,35 Z M153.216,35 L153.216,28.052 L158.292,35 L161.28,35 L161.28,22.994 L158.166,22.994 L158.166,29.6 L153.306,22.994 L150.12,22.994 L150.12,35 L153.216,35 Z M167.286,35 L167.286,31.49 L168.096,30.482 L171.246,35 L175.044,35 L170.13,28.61 L174.792,22.994 L170.976,22.994 L167.286,27.926 L167.286,22.994 L164.19,22.994 L164.19,35 L167.286,35 Z M185.514,35 L185.514,32.3 L179.808,32.3 L179.808,30.266 L185.388,30.266 L185.388,27.566 L179.808,27.566 L179.808,25.694 L185.514,25.694 L185.514,22.994 L176.712,22.994 L176.712,35 L185.514,35 Z M193.122,35 C196.884,35 199.602,32.714 199.602,28.988 C199.602,25.262 196.884,22.994 193.104,22.994 L188.064,22.994 L188.064,35 L193.122,35 Z M193.104,32.3 L191.16,32.3 L191.16,25.694 L193.122,25.694 C195.318,25.694 196.434,27.134 196.434,28.988 C196.434,30.77 195.21,32.3 193.104,32.3 Z M204.996,35 L204.996,22.994 L201.9,22.994 L201.9,35 L204.996,35 Z M211.002,35 L211.002,28.052 L216.078,35 L219.066,35 L219.066,22.994 L215.952,22.994 L215.952,29.6 L211.092,22.994 L207.906,22.994 L207.906,35 L211.002,35 Z" id="GOTOLINKEDIN" fill="#001C28" fill-rule="nonzero"></path>
        </g>
    </g>
</svg>