<?xml version="1.0" encoding="UTF-8"?>
<svg width="284px" height="57px" viewBox="0 0 284 57" version="1.1" xmlns="http://www.w3.org/2000/svg" xmlns:xlink="http://www.w3.org/1999/xlink">
    <!-- Generator: Sketch 63.1 (92452) - https://sketch.com -->
    <title>Group 11 Copy 5</title>
    <desc>Created with Sketch.</desc>
    <g id="Page-1" stroke="none" stroke-width="1" fill="none" fill-rule="evenodd">
        <g id="Group-11-Copy-5">
            <path d="M28.5,4.79616347e-13 L255,4.79616347e-13 C270.740115,4.76724934e-13 283.5,12.7598846 283.5,28.5 C283.5,44.2401154 270.740115,57 255,57 L28.5,57 C12.7598846,57 1.92760819e-15,44.2401154 0,28.5 C-1.92760819e-15,12.7598846 12.7598846,4.82507759e-13 28.5,4.79616347e-13 Z M28.5,5.25 C41.3406204,5.25 51.75,15.6593796 51.75,28.5 C51.75,41.3406204 41.3406204,51.75 28.5,51.75 C15.6593796,51.75 5.25,41.3406204 5.25,28.5 C5.25,15.6593796 15.6593796,5.25 28.5,5.25 Z M30.7649701,16.25 L20.7649701,16.25 C20.086324,16.25 19.5074874,16.4903822 19.0284431,16.9711538 C18.5493988,17.4519255 18.3098802,18.0328492 18.3098802,18.7139423 L18.3098802,18.7139423 L18.25,38.7860577 C18.25,39.4671508 18.4994985,40.0480745 18.998503,40.5288462 C19.4975075,41.0096178 20.086324,41.25 20.7649701,41.25 L20.7649701,41.25 L35.7350299,41.25 C36.413676,41.25 37.0024925,41.0096178 37.501497,40.5288462 C38.0005015,40.0480745 38.25,39.4671508 38.25,38.7860577 L38.25,38.7860577 L38.25,23.7620192 L30.7649701,16.25 Z M33.25,33.8970588 L33.25,36.1029412 L23.25,36.1029412 L23.25,33.8970588 L33.25,33.8970588 Z M33.25,28.75 L33.25,30.9558824 L23.25,30.9558824 L23.25,28.75 L33.25,28.75 Z M29.6785714,17.7205882 L36.8214286,24.3382353 L29.6785714,24.3382353 L29.6785714,17.7205882 Z" id="Combined-Shape" fill="#33DEB2"></path>
            <path d="M74.388,35 C78.15,35 80.868,32.714 80.868,28.988 C80.868,25.262 78.15,22.994 74.37,22.994 L69.33,22.994 L69.33,35 L74.388,35 Z M74.37,32.3 L72.426,32.3 L72.426,25.694 L74.388,25.694 C76.584,25.694 77.7,27.134 77.7,28.988 C77.7,30.77 76.476,32.3 74.37,32.3 Z M88.98,35.216 C92.652,35.216 95.388,32.66 95.388,29.006 C95.388,25.352 92.652,22.796 88.98,22.796 C85.308,22.796 82.554,25.352 82.554,29.006 C82.554,32.66 85.308,35.216 88.98,35.216 Z M88.98,32.48 C86.982,32.48 85.704,30.95 85.704,29.006 C85.704,27.044 86.982,25.532 88.98,25.532 C90.96,25.532 92.238,27.044 92.238,29.006 C92.238,30.95 90.96,32.48 88.98,32.48 Z M102.87,35 L104.688,27.476 L106.506,35 L109.782,35 L113.22,22.994 L109.728,22.994 L107.928,31.004 L105.876,22.994 L103.5,22.994 L101.448,31.004 L99.63,22.994 L96.156,22.994 L99.594,35 L102.87,35 Z M118.038,35 L118.038,28.052 L123.114,35 L126.102,35 L126.102,22.994 L122.988,22.994 L122.988,29.6 L118.128,22.994 L114.942,22.994 L114.942,35 L118.038,35 Z M136.932,35 L136.932,32.3 L132.108,32.3 L132.108,22.994 L129.012,22.994 L129.012,35 L136.932,35 Z M144.666,35.216 C148.338,35.216 151.074,32.66 151.074,29.006 C151.074,25.352 148.338,22.796 144.666,22.796 C140.994,22.796 138.24,25.352 138.24,29.006 C138.24,32.66 140.994,35.216 144.666,35.216 Z M144.666,32.48 C142.668,32.48 141.39,30.95 141.39,29.006 C141.39,27.044 142.668,25.532 144.666,25.532 C146.646,25.532 147.924,27.044 147.924,29.006 C147.924,30.95 146.646,32.48 144.666,32.48 Z M155.046,35 L155.64,33.272 L160.374,33.272 L160.968,35 L164.478,35 L159.942,22.994 L156.054,22.994 L151.536,35 L155.046,35 Z M159.528,30.572 L156.468,30.572 L157.998,26.054 L159.528,30.572 Z M171.168,35 C174.93,35 177.648,32.714 177.648,28.988 C177.648,25.262 174.93,22.994 171.15,22.994 L166.11,22.994 L166.11,35 L171.168,35 Z M171.15,32.3 L169.206,32.3 L169.206,25.694 L171.168,25.694 C173.364,25.694 174.48,27.134 174.48,28.988 C174.48,30.77 173.256,32.3 171.15,32.3 Z M188.4,35 L188.4,30.968 L189.984,30.968 L192,35 L195.546,35 L193.098,30.59 C194.214,30.194 195.492,29.078 195.492,26.99 C195.492,24.758 193.98,22.994 191.316,22.994 L185.304,22.994 L185.304,35 L188.4,35 Z M190.848,28.268 L188.4,28.268 L188.4,25.694 L190.848,25.694 C191.658,25.694 192.342,26.162 192.342,26.972 C192.342,27.818 191.658,28.268 190.848,28.268 Z M206.754,35 L206.754,32.3 L201.048,32.3 L201.048,30.266 L206.628,30.266 L206.628,27.566 L201.048,27.566 L201.048,25.694 L206.754,25.694 L206.754,22.994 L197.952,22.994 L197.952,35 L206.754,35 Z M213.768,35.216 C216.99,35.216 218.772,33.614 218.772,31.202 C218.772,26.738 211.986,27.854 211.986,26.324 C211.986,25.82 212.382,25.46 213.282,25.46 C214.47,25.46 215.784,25.874 216.792,26.702 L218.484,24.488 C217.206,23.39 215.532,22.814 213.606,22.814 C210.528,22.814 208.818,24.614 208.818,26.63 C208.818,31.256 215.622,29.942 215.622,31.58 C215.622,32.156 214.974,32.57 213.912,32.57 C212.274,32.57 210.942,31.85 210.078,30.986 L208.44,33.308 C209.646,34.46 211.338,35.216 213.768,35.216 Z M226.65,35.216 C230.484,35.216 232.302,33.11 232.302,30.122 L232.302,22.994 L229.17,22.994 L229.17,30.032 C229.17,31.454 228.306,32.48 226.65,32.48 C224.958,32.48 224.112,31.454 224.112,30.032 L224.112,22.994 L220.962,22.994 L220.962,30.14 C220.962,33.092 222.78,35.216 226.65,35.216 Z M238.308,35 L238.308,27.188 L241.332,35 L242.7,35 L245.742,27.188 L245.742,35 L248.838,35 L248.838,22.994 L244.536,22.994 L242.016,29.51 L239.514,22.994 L235.212,22.994 L235.212,35 L238.308,35 Z M260.55,35 L260.55,32.3 L254.844,32.3 L254.844,30.266 L260.424,30.266 L260.424,27.566 L254.844,27.566 L254.844,25.694 L260.55,25.694 L260.55,22.994 L251.748,22.994 L251.748,35 L260.55,35 Z" id="DOWNLOADRESUME" fill="#001C28" fill-rule="nonzero"></path>
        </g>
    </g>
</svg>