<?xml version="1.0" encoding="UTF-8"?>
<svg width="254px" height="57px" viewBox="0 0 254 57" version="1.1" xmlns="http://www.w3.org/2000/svg" xmlns:xlink="http://www.w3.org/1999/xlink">
    <!-- Generator: Sketch 63.1 (92452) - https://sketch.com -->
    <title>view_resume</title>
    <desc>Created with Sketch.</desc>
    <g id="Page-1" stroke="none" stroke-width="1" fill="none" fill-rule="evenodd">
        <g id="view_resume">
            <path d="M28.5,7.99360578e-13 L225,7.99360578e-13 C240.740115,7.96469165e-13 253.5,12.7598846 253.5,28.5 C253.5,44.2401154 240.740115,57 225,57 L28.5,57 C12.7598846,57 1.92760819e-15,44.2401154 0,28.5 C-1.92760819e-15,12.7598846 12.7598846,8.0225199e-13 28.5,7.99360578e-13 Z M28.5,5.25 C41.3406204,5.25 51.75,15.6593796 51.75,28.5 C51.75,41.3406204 41.3406204,51.75 28.5,51.75 C15.6593796,51.75 5.25,41.3406204 5.25,28.5 C5.25,15.6593796 15.6593796,5.25 28.5,5.25 Z M30.7649701,16.25 L20.7649701,16.25 C20.086324,16.25 19.5074874,16.4903822 19.0284431,16.9711538 C18.5493988,17.4519255 18.3098802,18.0328492 18.3098802,18.7139423 L18.3098802,18.7139423 L18.25,38.7860577 C18.25,39.4671508 18.4994985,40.0480745 18.998503,40.5288462 C19.4975075,41.0096178 20.086324,41.25 20.7649701,41.25 L20.7649701,41.25 L35.7350299,41.25 C36.413676,41.25 37.0024925,41.0096178 37.501497,40.5288462 C38.0005015,40.0480745 38.25,39.4671508 38.25,38.7860577 L38.25,38.7860577 L38.25,23.7620192 L30.7649701,16.25 Z M33.25,33.8970588 L33.25,36.1029412 L23.25,36.1029412 L23.25,33.8970588 L33.25,33.8970588 Z M33.25,28.75 L33.25,30.9558824 L23.25,30.9558824 L23.25,28.75 L33.25,28.75 Z M29.6785714,17.7205882 L36.8214286,24.3382353 L29.6785714,24.3382353 L29.6785714,17.7205882 Z" id="Combined-Shape" fill="#33DEB2"></path>
            <path d="M76.458,35 L80.994,22.994 L77.484,22.994 L74.514,31.652 L71.562,22.994 L68.052,22.994 L72.57,35 L76.458,35 Z M85.722,35 L85.722,22.994 L82.626,22.994 L82.626,35 L85.722,35 Z M97.434,35 L97.434,32.3 L91.728,32.3 L91.728,30.266 L97.308,30.266 L97.308,27.566 L91.728,27.566 L91.728,25.694 L97.434,25.694 L97.434,22.994 L88.632,22.994 L88.632,35 L97.434,35 Z M105.51,35 L107.328,27.476 L109.146,35 L112.422,35 L115.86,22.994 L112.368,22.994 L110.568,31.004 L108.516,22.994 L106.14,22.994 L104.088,31.004 L102.27,22.994 L98.796,22.994 L102.234,35 L105.51,35 Z M126.036,35 L126.036,30.968 L127.62,30.968 L129.636,35 L133.182,35 L130.734,30.59 C131.85,30.194 133.128,29.078 133.128,26.99 C133.128,24.758 131.616,22.994 128.952,22.994 L122.94,22.994 L122.94,35 L126.036,35 Z M128.484,28.268 L126.036,28.268 L126.036,25.694 L128.484,25.694 C129.294,25.694 129.978,26.162 129.978,26.972 C129.978,27.818 129.294,28.268 128.484,28.268 Z M144.39,35 L144.39,32.3 L138.684,32.3 L138.684,30.266 L144.264,30.266 L144.264,27.566 L138.684,27.566 L138.684,25.694 L144.39,25.694 L144.39,22.994 L135.588,22.994 L135.588,35 L144.39,35 Z M151.404,35.216 C154.626,35.216 156.408,33.614 156.408,31.202 C156.408,26.738 149.622,27.854 149.622,26.324 C149.622,25.82 150.018,25.46 150.918,25.46 C152.106,25.46 153.42,25.874 154.428,26.702 L156.12,24.488 C154.842,23.39 153.168,22.814 151.242,22.814 C148.164,22.814 146.454,24.614 146.454,26.63 C146.454,31.256 153.258,29.942 153.258,31.58 C153.258,32.156 152.61,32.57 151.548,32.57 C149.91,32.57 148.578,31.85 147.714,30.986 L146.076,33.308 C147.282,34.46 148.974,35.216 151.404,35.216 Z M164.286,35.216 C168.12,35.216 169.938,33.11 169.938,30.122 L169.938,22.994 L166.806,22.994 L166.806,30.032 C166.806,31.454 165.942,32.48 164.286,32.48 C162.594,32.48 161.748,31.454 161.748,30.032 L161.748,22.994 L158.598,22.994 L158.598,30.14 C158.598,33.092 160.416,35.216 164.286,35.216 Z M175.944,35 L175.944,27.188 L178.968,35 L180.336,35 L183.378,27.188 L183.378,35 L186.474,35 L186.474,22.994 L182.172,22.994 L179.652,29.51 L177.15,22.994 L172.848,22.994 L172.848,35 L175.944,35 Z M198.186,35 L198.186,32.3 L192.48,32.3 L192.48,30.266 L198.06,30.266 L198.06,27.566 L192.48,27.566 L192.48,25.694 L198.186,25.694 L198.186,22.994 L189.384,22.994 L189.384,35 L198.186,35 Z" id="VIEWRESUME" fill="#001C28" fill-rule="nonzero"></path>
        </g>
    </g>
</svg>